<svg xmlns="http://www.w3.org/2000/svg" viewBox="0 0 52.69 43.89"><defs><style>.cls-1{fill:#b5182d;}.cls-2{fill:#fff;}</style></defs><title>favicon</title><g id="Livello_2" data-name="Livello 2"><g id="Livello_1-2" data-name="Livello 1"><circle class="cls-1" cx="26.8" cy="21.94" r="21.94"/><path class="cls-2" d="M29.77,31.14a.75.75,0,0,1-.5-.15c-2.45-1.85-3.2-9.54-3.75-9.54-.85,0-6.44,6.89-7.94,8.84a2.09,2.09,0,0,1-1.7.6c-4.14,0-3.14-2.1-5.39-12.69-2.95,4.6-6.34,11-7.79,13.69-.15.3-.8.5-1.45.5S0,32.19,0,31.69c.2-1.4,8.79-18.48,10-20.08a4.5,4.5,0,0,1,3-1.9,1,1,0,0,1,1,.8c.7,2.5.95,9.14,2.9,15,5.54-5.54,8.29-9.34,11.14-9.34a1.25,1.25,0,0,1,.65.15c.75.55,3.84,10.54,3.84,12.89a1.77,1.77,0,0,1,0,.3C32.41,30.24,30.71,31.14,29.77,31.14Z"/><path class="cls-2" d="M52.49,27c-1.15,1.4-7.84,7.44-10,7.44-.85,0-2-.55-3.5-1.74-.45-.45-.8-8.24-.8-15.29a74,74,0,0,1,.5-10.48,1,1,0,0,1,1-.8A2.56,2.56,0,0,1,41.9,7.51c.85,1.75-.3,15.54,1.15,22.08,3.44-1.9,7.34-4.3,8-4.3a1.69,1.69,0,0,1,1.65,1.1A1,1,0,0,1,52.49,27Z"/></g></g></svg>