<svg xmlns="http://www.w3.org/2000/svg" viewBox="0 0 503.35 112.59"><defs><style>.cls-1{opacity:0.8;}.cls-2{fill:#222221;}.cls-3{fill:#b5182d;}</style></defs><title>logo_mascalzone_latino</title><g id="Livello_2" data-name="Livello 2"><g id="Livello_1-2" data-name="Livello 1"><g class="cls-1"><path class="cls-2" d="M145.65,106.09H138.6v-1l.72-.07a3.13,3.13,0,0,0,.63-.11,1.08,1.08,0,0,0,.62-.46,1.66,1.66,0,0,0,.2-.86V86.88a2.25,2.25,0,0,0-.23-1,1.93,1.93,0,0,0-.59-.72,2.83,2.83,0,0,0-1-.32,8.64,8.64,0,0,0-1.12-.18v-.94l5.43-.32.21.22v19.82a1.63,1.63,0,0,0,.19.84,1.21,1.21,0,0,0,.61.51,4.42,4.42,0,0,0,.64.22,4.49,4.49,0,0,0,.71.1Z"/><path class="cls-2" d="M167.75,105.82l-4.72.32-.22-.2v-1.83h-.09c-.23.24-.49.5-.79.78a5.59,5.59,0,0,1-1,.76,7,7,0,0,1-1.28.6,6,6,0,0,1-1.74.2A3.52,3.52,0,0,1,155,105.2a5.74,5.74,0,0,1-1-3.64v-6.9a1.75,1.75,0,0,0-.2-.89,1.79,1.79,0,0,0-.58-.62,2,2,0,0,0-.66-.26,5.67,5.67,0,0,0-.84-.1v-1l4.82-.35.22.2v10a3.42,3.42,0,0,0,.7,2.35,2.18,2.18,0,0,0,1.68.8,3.94,3.94,0,0,0,2.49-.84,4.38,4.38,0,0,0,.7-.65,3.72,3.72,0,0,0,.46-.64V94.56a1.82,1.82,0,0,0-.2-.86,2,2,0,0,0-.57-.64,1.83,1.83,0,0,0-.79-.21c-.34,0-.73,0-1.16-.06v-1l5.26-.35.22.2v11.46a1.65,1.65,0,0,0,.2.85,2,2,0,0,0,.57.6,1.74,1.74,0,0,0,.63.21c.25,0,.52.06.81.07Z"/><path class="cls-2" d="M188.24,106.09h-6.62v-1l1.12-.15c.31,0,.46-.17.46-.38a1.14,1.14,0,0,0-.14-.41q-.15-.27-.3-.51c-.24-.38-.58-.89-1-1.53l-1.56-2.3q-.76,1-1.41,1.86l-1.35,1.91a3.62,3.62,0,0,0-.22.37.86.86,0,0,0-.11.35c0,.21.14.39.42.53a3.65,3.65,0,0,0,1.26.29v.94h-5.35v-.91a5.78,5.78,0,0,0,1.61-.71,6,6,0,0,0,1.12-1c.3-.39.72-.93,1.26-1.61s1.25-1.62,2.11-2.8l-1.82-2.6c-.72-1-1.32-1.88-1.78-2.57a3.59,3.59,0,0,0-.88-.9,2.39,2.39,0,0,0-1.38-.34v-1H180v1a7,7,0,0,0-.92.06c-.3,0-.45.13-.45.26a.57.57,0,0,0,.09.29,3.65,3.65,0,0,0,.21.36l1,1.53c.45.7.94,1.43,1.47,2.2l1.19-1.64c.46-.62.88-1.22,1.26-1.79a1.47,1.47,0,0,0,.12-.25,1.11,1.11,0,0,0,.05-.3c0-.21-.17-.37-.5-.49a4.84,4.84,0,0,0-1-.26v-.94h5.34v.91a6.22,6.22,0,0,0-1.76.7,4.62,4.62,0,0,0-1.07.93c-.32.4-.71.89-1.15,1.48L182,98.12l2.17,3.07c.56.8,1.12,1.63,1.68,2.48a3.91,3.91,0,0,0,.95,1,2.72,2.72,0,0,0,1.43.43Z"/><path class="cls-2" d="M209.75,105.82l-4.72.32-.22-.2v-1.83h-.08l-.79.78a6.06,6.06,0,0,1-1,.76,7,7,0,0,1-1.28.6,5.88,5.88,0,0,1-1.73.2A3.5,3.5,0,0,1,197,105.2a5.68,5.68,0,0,1-1-3.64v-6.9a1.86,1.86,0,0,0-.2-.89,1.93,1.93,0,0,0-.59-.62,1.82,1.82,0,0,0-.66-.26,5.37,5.37,0,0,0-.84-.1v-1l4.82-.35.22.2v10a3.42,3.42,0,0,0,.7,2.35,2.18,2.18,0,0,0,1.69.8,4,4,0,0,0,1.43-.25,4.25,4.25,0,0,0,1.06-.59,4.77,4.77,0,0,0,.69-.65,3.24,3.24,0,0,0,.46-.64V94.56a1.71,1.71,0,0,0-.2-.86,2,2,0,0,0-.57-.64,1.83,1.83,0,0,0-.79-.21c-.34,0-.73,0-1.16-.06v-1l5.26-.35.22.2v11.46a1.75,1.75,0,0,0,.2.85,2,2,0,0,0,.57.6,1.74,1.74,0,0,0,.63.21c.25,0,.52.06.81.07Z"/><path class="cls-2" d="M227.38,93.5a2.48,2.48,0,0,1-.36,1.33,1.26,1.26,0,0,1-1.13.58,1.66,1.66,0,0,1-1.25-.43,1.28,1.28,0,0,1-.44-.93,2.61,2.61,0,0,1,.06-.59l.09-.53a3.24,3.24,0,0,0-1.61.56,4.74,4.74,0,0,0-1.57,1.58v8.41a1.57,1.57,0,0,0,.2.83,1.19,1.19,0,0,0,.62.49,4.46,4.46,0,0,0,.95.22c.38,0,.72.08,1,.1v1h-7.62v-1l.7-.06a2.53,2.53,0,0,0,.62-.12,1,1,0,0,0,.61-.46,1.64,1.64,0,0,0,.2-.85V94.72a2,2,0,0,0-.22-.9,1.75,1.75,0,0,0-.59-.7,1.78,1.78,0,0,0-.66-.25,4.93,4.93,0,0,0-.82-.11v-1l4.81-.32.2.2v2h.08a6.43,6.43,0,0,1,2-1.8,4.28,4.28,0,0,1,2-.62,2,2,0,0,1,1.5.6A2.21,2.21,0,0,1,227.38,93.5Z"/><path class="cls-2" d="M232.31,110.8a1.74,1.74,0,0,1,.41-1.19,1.27,1.27,0,0,1,1-.46,1.86,1.86,0,0,1,.81.17,2.62,2.62,0,0,1,.6.45,5,5,0,0,1,.47.6l.39.62a5.81,5.81,0,0,0,1.75-2.06,16.24,16.24,0,0,0,1.47-2.92q-1.38-3.47-2.52-6.21c-.75-1.83-1.53-3.71-2.35-5.67a2.07,2.07,0,0,0-.94-1,3.91,3.91,0,0,0-1.32-.48v-1h6.59v1a4.8,4.8,0,0,0-1,.18c-.41.11-.62.24-.62.39a1.41,1.41,0,0,0,.07.29c0,.14.1.28.15.43.37,1,.94,2.36,1.7,4.17s1.35,3.28,1.77,4.37c.44-1,.89-2.12,1.37-3.24s1-2.44,1.59-4c.07-.18.17-.44.29-.77a2.27,2.27,0,0,0,.19-.84c0-.25-.22-.49-.66-.71a4,4,0,0,0-1.27-.4v-.94h5.36v.91a3.54,3.54,0,0,0-1.15.51,2.55,2.55,0,0,0-1.07,1.22q-1.76,4-3.1,7.37c-.91,2.21-1.59,3.85-2.06,4.89a25.32,25.32,0,0,1-1.65,3.2,9.34,9.34,0,0,1-1.41,1.81,4.18,4.18,0,0,1-1.22.83,3.2,3.2,0,0,1-1.14.21,2.71,2.71,0,0,1-1.79-.54A1.59,1.59,0,0,1,232.31,110.8Z"/><path class="cls-2" d="M276.07,93.5a2.48,2.48,0,0,1-.36,1.33,1.26,1.26,0,0,1-1.13.58,1.68,1.68,0,0,1-1.25-.43,1.26,1.26,0,0,1-.43-.93,2.65,2.65,0,0,1,.05-.59l.09-.53a3.27,3.27,0,0,0-1.61.56,4.84,4.84,0,0,0-1.57,1.58v8.41a1.57,1.57,0,0,0,.2.83,1.19,1.19,0,0,0,.62.49,4.46,4.46,0,0,0,.95.22c.38,0,.72.08,1,.1v1H265v-1l.7-.06a2.53,2.53,0,0,0,.62-.12,1,1,0,0,0,.61-.46,1.64,1.64,0,0,0,.2-.85V94.72a2.08,2.08,0,0,0-.21-.9,1.86,1.86,0,0,0-.6-.7,1.78,1.78,0,0,0-.66-.25,4.93,4.93,0,0,0-.82-.11v-1l4.81-.32.2.2v2h.08a6.54,6.54,0,0,1,2-1.8,4.28,4.28,0,0,1,2-.62,2,2,0,0,1,1.51.6A2.25,2.25,0,0,1,276.07,93.5Z"/><path class="cls-2" d="M296.2,98.72a9.32,9.32,0,0,1-.49,3,7,7,0,0,1-1.38,2.5A6.35,6.35,0,0,1,292,106a7.38,7.38,0,0,1-3,.58,6.89,6.89,0,0,1-2.63-.52,6.67,6.67,0,0,1-2.21-1.52,7.14,7.14,0,0,1-1.52-2.4,8.41,8.41,0,0,1-.56-3.17,7.84,7.84,0,0,1,2-5.53,7.2,7.2,0,0,1,10.17-.11A7.47,7.47,0,0,1,296.2,98.72Zm-3,0a13.65,13.65,0,0,0-.22-2.32,7.26,7.26,0,0,0-.67-2.08,4.09,4.09,0,0,0-1.23-1.46,3.14,3.14,0,0,0-1.86-.54,3.28,3.28,0,0,0-1.93.55,4,4,0,0,0-1.3,1.53,6.82,6.82,0,0,0-.66,2,13.89,13.89,0,0,0,0,4.81,7.59,7.59,0,0,0,.72,2.14,4.14,4.14,0,0,0,1.26,1.47,3.18,3.18,0,0,0,1.87.53,3.26,3.26,0,0,0,2.9-1.77A9.38,9.38,0,0,0,293.17,98.75Z"/><path class="cls-2" d="M317.17,98.72a9.59,9.59,0,0,1-.48,3,7.26,7.26,0,0,1-1.38,2.5A6.47,6.47,0,0,1,313,106a7.38,7.38,0,0,1-3,.58,6.89,6.89,0,0,1-2.63-.52,6.78,6.78,0,0,1-2.21-1.52,7.14,7.14,0,0,1-1.52-2.4,8.61,8.61,0,0,1-.56-3.17,7.88,7.88,0,0,1,2-5.53,7.21,7.21,0,0,1,10.18-.11A7.51,7.51,0,0,1,317.17,98.72Zm-3,0a13.65,13.65,0,0,0-.22-2.32,7.6,7.6,0,0,0-.66-2.08A4.22,4.22,0,0,0,312,92.89a3.14,3.14,0,0,0-1.86-.54,3.3,3.3,0,0,0-1.93.55,4.09,4.09,0,0,0-1.3,1.53,6.82,6.82,0,0,0-.66,2,13.11,13.11,0,0,0-.19,2.21,14,14,0,0,0,.23,2.6,7.59,7.59,0,0,0,.72,2.14,4.35,4.35,0,0,0,1.26,1.47,3.2,3.2,0,0,0,1.87.53,3.28,3.28,0,0,0,2.91-1.77A9.49,9.49,0,0,0,314.14,98.75Z"/><path class="cls-2" d="M348.76,106.09h-7v-1l.68-.06a2.64,2.64,0,0,0,.61-.12,1.06,1.06,0,0,0,.61-.46,1.65,1.65,0,0,0,.19-.85V96.17a3.56,3.56,0,0,0-.69-2.35,2.19,2.19,0,0,0-1.74-.83,4,4,0,0,0-1.35.22,4.12,4.12,0,0,0-1.15.62,3.34,3.34,0,0,0-.71.69,6,6,0,0,0-.43.62v8.34a1.75,1.75,0,0,0,.17.84,1.18,1.18,0,0,0,.6.51,5.81,5.81,0,0,0,.61.19,3.77,3.77,0,0,0,.71.1v1H333v-1l.65-.06a2.59,2.59,0,0,0,.58-.12,1,1,0,0,0,.6-.46,1.55,1.55,0,0,0,.2-.85V96.17a3.51,3.51,0,0,0-.7-2.35,2.18,2.18,0,0,0-1.74-.83,4,4,0,0,0-1.35.23,4.63,4.63,0,0,0-1.16.62,3.78,3.78,0,0,0-.72.72l-.44.61v8.28a1.53,1.53,0,0,0,.21.83,1.26,1.26,0,0,0,.61.52,3.94,3.94,0,0,0,.63.22,5,5,0,0,0,.72.1v1h-7v-1l.7-.06a2.53,2.53,0,0,0,.62-.12,1,1,0,0,0,.61-.46,1.64,1.64,0,0,0,.2-.85v-9a1.69,1.69,0,0,0-.21-.84,2,2,0,0,0-.6-.64,2.47,2.47,0,0,0-.69-.29,4.58,4.58,0,0,0-.85-.13v-1l4.84-.32.2.2v2.07H329c.24-.25.54-.53.89-.87a7.7,7.7,0,0,1,1-.8,4.61,4.61,0,0,1,1.28-.59,5.91,5.91,0,0,1,1.67-.23,3.93,3.93,0,0,1,2.41.75,4.19,4.19,0,0,1,1.45,1.83l.93-.91a8.22,8.22,0,0,1,1.06-.82,4.82,4.82,0,0,1,1.31-.62,5.83,5.83,0,0,1,1.68-.23,3.68,3.68,0,0,1,2.89,1.2,5.44,5.44,0,0,1,1.07,3.69v7.34a1.87,1.87,0,0,0,.17.84,1.18,1.18,0,0,0,.6.51,4.53,4.53,0,0,0,.67.19,5.1,5.1,0,0,0,.74.1Z"/><path class="cls-2" d="M364.81,99a3.61,3.61,0,0,1,.92,1.22,3.87,3.87,0,0,1,.33,1.68,4.11,4.11,0,0,1-1.51,3.28,6.37,6.37,0,0,1-6.21.82,6.29,6.29,0,0,1-1.51-.83l-.3.95h-1.09l-.15-5h1a5.45,5.45,0,0,0,.5,1.33,6.58,6.58,0,0,0,.92,1.39,5,5,0,0,0,1.37,1.08,3.57,3.57,0,0,0,1.79.44,3.27,3.27,0,0,0,2.17-.64,2.24,2.24,0,0,0,.76-1.83,2.18,2.18,0,0,0-.24-1.06,2.4,2.4,0,0,0-.71-.79,6.46,6.46,0,0,0-1.18-.61c-.47-.18-1-.35-1.57-.53a14.82,14.82,0,0,1-1.53-.56,6.15,6.15,0,0,1-1.45-.85,4.16,4.16,0,0,1-1.05-1.26,3.59,3.59,0,0,1-.41-1.75,4,4,0,0,1,1.32-3,5,5,0,0,1,3.53-1.23,7.53,7.53,0,0,1,1.73.22,6,6,0,0,1,1.45.53l.33-.76h1.06l.22,4.64h-1A4.73,4.73,0,0,0,363,93.32a3.44,3.44,0,0,0-2.48-1,2.78,2.78,0,0,0-1.89.6,1.87,1.87,0,0,0-.69,1.46,2.39,2.39,0,0,0,.23,1.1,2.1,2.1,0,0,0,.68.75,5.91,5.91,0,0,0,1.1.55q.68.25,1.65.57a15.15,15.15,0,0,1,1.83.72A6.24,6.24,0,0,1,364.81,99Z"/></g><path class="cls-3" d="M76.55,56.68a.75.75,0,0,1-.5-.15C73.6,54.68,72.85,47,72.3,47c-.85,0-6.44,6.89-7.94,8.84a2.09,2.09,0,0,1-1.7.6c-4.14,0-3.14-2.1-5.39-12.69-3,4.6-6.34,11-7.79,13.68-.15.3-.8.5-1.45.5s-1.25-.2-1.25-.7c.2-1.39,8.79-18.47,10-20.07a4.5,4.5,0,0,1,3-1.9,1.05,1.05,0,0,1,1,.8c.69,2.5.94,9.14,2.89,15,5.55-5.54,8.29-9.34,11.14-9.34a1.25,1.25,0,0,1,.65.15c.75.55,3.84,10.54,3.84,12.89a1.77,1.77,0,0,1,0,.3C79.19,55.78,77.5,56.68,76.55,56.68Z"/><path class="cls-3" d="M110.85,58.17c0,.75-.7,1-1.44,1-3.85,0-3-2.59-5.15-9.14-5,1.75-14.08,2.85-14.08,2.85-1.25,2.5-4.25,11.74-4.7,12.09a3.59,3.59,0,0,1-2.19.8c-.3,0-.55-.1-.6-.35,0-5.4,11.58-33.37,12.68-34.12a6.62,6.62,0,0,1,3.55-1.09,2.71,2.71,0,0,1,2.1.7c2.94,3.54,9.18,22,9.78,26.66C110.8,57.82,110.85,58,110.85,58.17ZM98,33.85c-.65.1-4.45,8.74-6.79,15.78,7.54-3.34,12-3.34,12-3.34S98.42,33.85,98,33.85Z"/><path class="cls-3" d="M141.87,36.9c-.8,0-1.75-.75-3.5-.75-6.74,0-20.53,5.64-22,8.89v.05c.15,1,15.14,4.14,16.84,5.24.69.45,2.79,2.65,2.79,4.3a1.31,1.31,0,0,1-.45,1.1c-1.15,1-9.44,5.19-11.48,5.19-1.6,0-4.35-1-4.45-1.8,0-1,11.89-3.74,11.89-5.89,0,0,0,0,0-.1-.5-2.05-13.74-2.45-17.28-6.29a6,6,0,0,1-.85-3.3,3.54,3.54,0,0,1,.75-2.4c2.15-2.19,14.13-8.39,23.12-8.39a8,8,0,0,1,6.69,3.2C143.86,36.4,142.76,36.9,141.87,36.9Z"/><path class="cls-3" d="M164,52.33c0,3.4-9.44,8.89-12.09,8.89-3.35,0-7.54-2.15-7.54-8.19,0-9.54,9.39-22,16.28-23.17a1.38,1.38,0,0,1,.45-.05c1.3,0,2.5,1,2.5,1.64a.57.57,0,0,1-.45.5c-2.6.8-14.59,12.49-14.59,22.38,0,1.5,0,3.64,1.8,3.64,3,0,9.84-4.19,11.49-6.94a1,1,0,0,1,.8-.4,1.47,1.47,0,0,1,1.35,1.5Z"/><path class="cls-3" d="M194.6,58.17c0,.75-.7,1-1.45,1-3.84,0-3.05-2.59-5.14-9.14-5,1.75-14.09,2.85-14.09,2.85-1.25,2.5-4.24,11.74-4.69,12.09a3.63,3.63,0,0,1-2.2.8c-.3,0-.55-.1-.6-.35,0-5.4,11.59-33.37,12.69-34.12a6.59,6.59,0,0,1,3.54-1.09,2.71,2.71,0,0,1,2.1.7c3,3.54,9.19,22,9.79,26.66C194.55,57.82,194.6,58,194.6,58.17ZM181.76,33.85c-.64.1-4.44,8.74-6.79,15.78,7.54-3.34,12-3.34,12-3.34S182.16,33.85,181.76,33.85Z"/><path class="cls-3" d="M217.47,61.62c-1.05,1.4-10.24,5.84-11.89,5.84A6.8,6.8,0,0,1,202,65.72c-.55-.3-1.3-16.14-1.3-27.17,0-6.2-.2-10.44,1.55-10.44a2.76,2.76,0,0,1,2.2,1.35,27,27,0,0,1,.35,5.84c0,3.55-.1,8.24-.1,12.79,0,6.34.2,12.43,1,15.23,3.65-1,10.34-3.35,10.14-3.35a1.83,1.83,0,0,1,1.8,1.15A1,1,0,0,1,217.47,61.62Z"/><path class="cls-3" d="M235.25,34.8c-1.7,2.15-10.94,17.63-10.94,20.38,0,.15,0,.35.35.35,1.3,0,6.34-2.05,7.44-2.05a3.87,3.87,0,0,1,2.7,1.9c0,.8-8.49,1.65-11.44,3.94-.05,0-.1,0-.2,0-.85,0-3.59-2.59-3.69-3.49v-.05c0-2.35,8.39-17.73,9.14-18.38,0-.05,0-.05,0-.1h-.15a45.37,45.37,0,0,0-9.94,3.09,1,1,0,0,1-.4.05c-.85,0-2.5-.79-2.6-1.34,0-2.35,13.33-4.9,14.28-5.55a2.92,2.92,0,0,1,1.6-.35c1.7,0,3.8.65,3.9,1.3A.84.84,0,0,1,235.25,34.8Z"/><path class="cls-3" d="M246.28,56.68c-5.24,0-7.79-5.15-7.79-9.44,0-8.29,6-11.74,8.84-11.74a3.19,3.19,0,0,1,2.75,1.15c1.8,0,4.84.7,5.34,8.64C255.42,50.53,250.88,56.68,246.28,56.68Zm2.9-17.13c-4,0-7.69,5.89-7.69,9.73,0,2.25,1.25,3.1,2.55,3.1,2.09,0,4.89-2,5.79-3.7a18,18,0,0,0,1.75-7.09V41C251.43,39.65,250,39.55,249.18,39.55Z"/><path class="cls-3" d="M287.88,34.85c0,3.25-.45,9.09-.45,15.23,0,2.1.05,4.25.2,6.35,0,.89-1.65,1.74-2.94,1.74a1.43,1.43,0,0,1-.85-.2c-2.35-1.54-13.24-13.83-16.28-16.23.25,3.7.54,12.54.54,16.93,0,1.95,0,2.75-.69,2.75-1,0-2.65-1.6-3.2-3.2-.2-.2-.2-2.09-.2-4.59,0-3.6.05-8.59.05-12.54,0-2.44-.1-4.49-.1-5.54,0-.75,1-1.15,1.85-1.15a1.6,1.6,0,0,1,.9.2c1.1.85,15.08,16,17.28,18.08,0,0-.55-10.14-.55-17,0-3.2-.15-6,.95-6s3.44,1.54,3.44,3.49A16.63,16.63,0,0,1,287.88,34.85Z"/><path class="cls-3" d="M300.86,33.05c-.45,2.7-1.39,17.58-1.39,17.58,2.29-.5,4.44-1.9,7-2,2.79,0,5.49,1.25,5.54,1.95s-1.35,1.65-2.65,1.65c-2,0-5.29,1.05-9.54,2.4a4.32,4.32,0,0,0-.09.85c0,2,1,6,1.44,6,.55.1,5.1-1.5,6.8-1.5,1.24,0,4.59.65,4.69,1.45,0,1.6-9.14,3.45-10.24,4a3.49,3.49,0,0,1-1.5.35c-4.14,0-5-8.84-5-16.44A164,164,0,0,1,297,32.75a23.37,23.37,0,0,1-.65-2.44c0-.35.1-.6.45-.65,5-.8,9.84-2.25,12.33-2.25,1.85,0,4.75,1.25,4.9,2.3v.05C314,30.76,303.21,32.05,300.86,33.05Z"/><path class="cls-3" d="M346.66,52.53c-1.15,1.4-7.84,7.44-10,7.44-.85,0-2-.55-3.5-1.75-.45-.45-.8-8.24-.8-15.28a74.26,74.26,0,0,1,.5-10.49,1,1,0,0,1,1.05-.8,2.55,2.55,0,0,1,2.15,1.4c.85,1.75-.3,15.53,1.15,22.08,3.44-1.9,7.34-4.3,8-4.3a1.69,1.69,0,0,1,1.65,1.1A1,1,0,0,1,346.66,52.53Z"/><path class="cls-3" d="M375.57,58.17c0,.75-.7,1-1.45,1-3.84,0-3-2.59-5.14-9.14-5.05,1.75-14.09,2.85-14.09,2.85-1.24,2.5-4.24,11.74-4.69,12.09a3.63,3.63,0,0,1-2.2.8c-.3,0-.55-.1-.6-.35,0-5.4,11.59-33.37,12.69-34.12a6.61,6.61,0,0,1,3.54-1.09,2.71,2.71,0,0,1,2.1.7c2.95,3.54,9.19,22,9.79,26.66C375.52,57.82,375.57,58,375.57,58.17ZM362.74,33.85c-.65.1-4.45,8.74-6.8,15.78,7.54-3.34,12-3.34,12-3.34S363.14,33.85,362.74,33.85Z"/><path class="cls-3" d="M399.29,26.21a.81.81,0,0,1-.15.45c-.55.75-9.94,1.75-10.39,2.75-.75,1.65-.95,36-1.2,37.2-.05.2-.45.35-1,.35a3,3,0,0,1-2.95-2.14,23.22,23.22,0,0,1-.15-3.85c0-9.19,1-31.21,1-31.31s-5,1.4-6.79,1.4c-1.6,0-3.7-1.45-3.8-2.25,0-1,2.1-.6,3.55-.85,3.49-.65,8.09-3.2,20.12-3.2a1.74,1.74,0,0,1,1.8,1.3Z"/><path class="cls-3" d="M402.54,46.34c0,6.74-.5,11.78-1.6,11.78-.9,0-1.75-1.84-2.1-2.69-.75-1.8-1.15-8.74-1.15-13.34,0-4-.1-4.59,1.5-4.59,2,0,2.65.65,3.1,3.24C402.44,42.19,402.54,44.19,402.54,46.34Z"/><path class="cls-3" d="M434.9,34.85c0,3.25-.45,9.09-.45,15.23,0,2.1.05,4.25.2,6.35,0,.89-1.65,1.74-2.95,1.74a1.43,1.43,0,0,1-.85-.2c-2.35-1.54-13.23-13.83-16.28-16.23.25,3.7.55,12.54.55,16.93,0,1.95.05,2.75-.7,2.75-.95,0-2.65-1.6-3.2-3.2-.2-.2-.2-2.09-.2-4.59,0-3.6.05-8.59.05-12.54,0-2.44-.1-4.49-.1-5.54,0-.75.95-1.15,1.85-1.15a1.6,1.6,0,0,1,.9.2c1.1.85,15.08,16,17.28,18.08,0,0-.55-10.14-.55-17,0-3.2-.15-6,.95-6s3.45,1.54,3.45,3.49A16.63,16.63,0,0,1,434.9,34.85Z"/><path class="cls-3" d="M448.83,56.68c-5.25,0-7.79-5.15-7.79-9.44,0-8.29,6-11.74,8.84-11.74a3.18,3.18,0,0,1,2.74,1.15c1.8,0,4.85.7,5.35,8.64C458,50.53,453.42,56.68,448.83,56.68Zm2.89-17.13c-4,0-7.69,5.89-7.69,9.73,0,2.25,1.25,3.1,2.55,3.1,2.1,0,4.89-2,5.79-3.7a18,18,0,0,0,1.75-7.09V41C454,39.65,452.52,39.55,451.72,39.55Z"/><g class="cls-1"><path class="cls-2" d="M9.31,13.68s-.43,1-1.05,2.78c-.29.9-.66,2-1,3.27l-.57,2c-.17.72-.36,1.48-.56,2.27-.09.39-.19.79-.29,1.2s-.17.84-.26,1.27c-.18.86-.36,1.75-.54,2.66S4.72,31,4.57,32l-.24,1.46c0,.5-.11,1-.17,1.5-.11,1-.22,2-.34,3.08s-.13,2.1-.2,3.16c0,.53-.07,1.07-.1,1.6l0,.81v.81c0,1.08,0,2.16,0,3.24v1.63l.07,1.61c.05,1.08.1,2.16.14,3.22s.18,2.12.28,3.16.22,2.06.33,3.07.28,2,.44,3,.33,1.91.49,2.83c.26,1.84.75,3.54,1.12,5.12.19.79.37,1.55.55,2.27.08.36.17.71.25,1s.2.67.29,1c.4,1.26.74,2.37,1,3.27.57,1.81.89,2.85.89,2.85a.16.16,0,0,1-.11.21A.16.16,0,0,1,9,81.8v0l-.4-.69c-.25-.46-.64-1.12-1.07-2S6.51,77.2,5.94,76a41.2,41.2,0,0,1-1.68-4.22A39.79,39.79,0,0,1,2.6,66.61c-.24-.93-.48-1.88-.73-2.86a24.11,24.11,0,0,1-.64-3c-.16-1-.33-2.09-.49-3.15a29.16,29.16,0,0,1-.42-3.25C.25,53.23.15,52.12.1,51L0,49.33V47.65c0-1.12,0-2.24.05-3.35l0-.84.07-.83c0-.55.09-1.1.14-1.65.1-1.1.18-2.19.34-3.26s.34-2.12.51-3.15a26.19,26.19,0,0,1,.59-3c.24-1,.47-1.94.69-2.87.54-1.85,1-3.59,1.64-5.16.3-.78.55-1.54.84-2.24s.61-1.36.89-2C6.31,18,6.9,17,7.36,16.14s.89-1.5,1.17-1.94.46-.66.46-.66l0,0a.17.17,0,0,1,.29.18Z"/><path class="cls-2" d="M46.81.28a39.79,39.79,0,0,0-2.47,3.51c-.75,1.14-1.6,2.57-2.52,4.23s-1.88,3.6-2.87,5.72-1.92,4.49-2.78,7a75.27,75.27,0,0,0-2.32,8.12,80.16,80.16,0,0,0-1.51,8.9c-.06.76-.13,1.53-.2,2.3L32,41.25l0,1.16c0,.78-.07,1.56-.1,2.34s0,1.56,0,2.34a75.2,75.2,0,0,0,.63,9.28c.17,1.53.48,3,.71,4.52s.64,2.92,1,4.35S35,68,35.35,69.4c.18.69.4,1.35.63,2l.66,1.93c.23.63.41,1.27.66,1.87s.49,1.2.72,1.79l.7,1.72.34.84c.13.27.26.54.38.81,1,2.12,1.86,4.09,2.8,5.75s1.64,3.17,2.38,4.33l2.2,3.7a.16.16,0,0,1-.06.23.16.16,0,0,1-.22,0h0l-.72-.87c-.47-.58-1.17-1.42-2-2.52s-1.83-2.48-2.9-4.1-2.2-3.51-3.38-5.6l-.45-.8-.41-.83-.85-1.71c-.59-1.17-1.15-2.39-1.65-3.68l-.79-1.95c-.27-.66-.54-1.33-.76-2-.48-1.38-1-2.8-1.36-4.26s-.79-3-1.13-4.49-.67-3.09-.87-4.68a70.74,70.74,0,0,1-.77-9.69c0-.81,0-1.63,0-2.44s.08-1.63.11-2.44L28.64,41c0-.4.08-.8.12-1.2.09-.81.18-1.61.26-2.4a71.62,71.62,0,0,1,1.85-9.22c.38-1.47.81-2.9,1.28-4.29s1-2.72,1.51-4a63.6,63.6,0,0,1,3.36-7,59.74,59.74,0,0,1,3.46-5.58,48.6,48.6,0,0,1,3.06-4c.88-1.08,1.66-1.86,2.18-2.4s.82-.8.82-.8l0,0a.17.17,0,0,1,.24,0A.17.17,0,0,1,46.81.28Z"/><path class="cls-2" d="M27.83,5.59S27.1,6.74,26,8.88A79.51,79.51,0,0,0,22.25,18c-.68,1.93-1.32,4.05-1.93,6.32s-1.15,4.68-1.57,7.2-.77,5.14-1,7.82-.34,5.4-.29,8.13c0,.68,0,1.36,0,2l.09,2c0,1.36.19,2.71.3,4,.26,2.67.64,5.29,1.11,7.8s1,4.93,1.66,7.19l.45,1.67c.17.55.33,1.08.5,1.61.34,1,.64,2.07,1,3s.7,1.88,1,2.76.64,1.7,1,2.46c.65,1.54,1.16,2.9,1.7,4,1,2.16,1.6,3.4,1.6,3.4a.17.17,0,0,1-.3.17v0L27,88.86c-.36-.54-.92-1.32-1.58-2.34s-1.41-2.3-2.24-3.78-1.67-3.21-2.57-5.11c-.44-1-.84-2-1.28-3-.22-.53-.43-1.06-.64-1.61s-.37-1.12-.57-1.69A65.71,65.71,0,0,1,16,64a76.89,76.89,0,0,1-1.43-8c-.14-1.39-.34-2.78-.39-4.19,0-.71-.07-1.41-.11-2.12s0-1.42,0-2.13a76.21,76.21,0,0,1,.41-8.44A75.45,75.45,0,0,1,15.74,31a65.46,65.46,0,0,1,2-7.35,61.69,61.69,0,0,1,2.49-6.34,53.66,53.66,0,0,1,2.59-5.11,43.25,43.25,0,0,1,2.35-3.75c.67-1,1.29-1.76,1.69-2.28s.66-.76.66-.76l0,0a.16.16,0,0,1,.24,0A.17.17,0,0,1,27.83,5.59Z"/><path class="cls-2" d="M494,18.46s.43,1,1,2.79c.29.9.66,2,1,3.26.17.64.36,1.31.56,2s.37,1.47.56,2.26l.3,1.21c.09.41.17.84.26,1.27.18.85.36,1.74.54,2.65s.3,1.87.45,2.83c.08.49.16,1,.23,1.47s.12,1,.17,1.5c.12,1,.23,2,.34,3.07s.14,2.1.21,3.17c0,.53.06,1.06.1,1.6l.05.8v.81c0,1.08,0,2.16,0,3.25v1.62l-.07,1.62-.15,3.22c0,1.06-.17,2.11-.27,3.15s-.22,2.07-.33,3.08-.28,2-.44,3-.33,1.9-.49,2.82c-.26,1.85-.75,3.55-1.12,5.13-.19.79-.38,1.55-.55,2.27-.08.36-.17.71-.25,1s-.2.66-.3,1l-1,3.27L494,86.44a.17.17,0,0,0,.11.22.16.16,0,0,0,.2-.08v0l.4-.69c.24-.45.64-1.11,1.07-2s1-1.9,1.58-3.13a41.43,41.43,0,0,0,1.68-4.23,39.62,39.62,0,0,0,1.66-5.13c.24-.93.48-1.89.73-2.86a26.48,26.48,0,0,0,.64-3c.16-1,.32-2.09.49-3.16a28.56,28.56,0,0,0,.41-3.25c.08-1.09.18-2.2.23-3.32l.09-1.67V52.44l-.06-3.36v-.83l-.07-.83c0-.56-.09-1.11-.14-1.66-.1-1.1-.18-2.19-.34-3.25s-.34-2.12-.51-3.16a29.51,29.51,0,0,0-.59-3c-.24-1-.47-1.94-.7-2.87-.53-1.85-1-3.59-1.63-5.15-.3-.79-.55-1.54-.85-2.25s-.6-1.36-.88-2c-.54-1.24-1.12-2.28-1.58-3.14s-.89-1.5-1.18-1.95-.45-.66-.45-.66l0,0a.17.17,0,0,0-.24,0A.17.17,0,0,0,494,18.46Z"/><path class="cls-2" d="M456.54,5.07A40.37,40.37,0,0,1,459,8.57c.74,1.15,1.6,2.57,2.52,4.24s1.87,3.59,2.87,5.72,1.92,4.49,2.78,7a77,77,0,0,1,2.31,8.12A80,80,0,0,1,471,42.57c.06.77.13,1.53.2,2.31l.1,1.15,0,1.17.09,2.33c0,.78,0,1.56,0,2.34a75.36,75.36,0,0,1-.63,9.29c-.17,1.53-.48,3-.71,4.51s-.64,2.93-.95,4.36-.77,2.8-1.14,4.16c-.18.68-.4,1.34-.63,2s-.44,1.3-.66,1.93-.41,1.27-.66,1.88l-.73,1.78c-.23.59-.47,1.16-.69,1.73-.12.28-.23.56-.34.84l-.38.8c-1,2.12-1.87,4.1-2.8,5.76s-1.64,3.17-2.38,4.33c-1.4,2.35-2.21,3.69-2.21,3.69a.19.19,0,0,0,.06.24.2.2,0,0,0,.23,0h0l.73-.88c.46-.58,1.17-1.41,2-2.52s1.82-2.48,2.9-4.1,2.2-3.5,3.38-5.6c.15-.26.29-.53.45-.79s.27-.55.41-.83l.85-1.72A37.34,37.34,0,0,0,469.19,79c.27-.65.53-1.3.8-2s.54-1.32.76-2c.47-1.38.95-2.79,1.35-4.26s.8-3,1.14-4.49.67-3.08.87-4.67a70.87,70.87,0,0,0,.77-9.69c0-.82,0-1.63,0-2.45L474.76,47l-.05-1.22c0-.4-.09-.81-.13-1.21-.08-.8-.17-1.6-.25-2.4A70.14,70.14,0,0,0,472.47,33c-.37-1.48-.8-2.91-1.27-4.29s-1-2.72-1.52-4a65.29,65.29,0,0,0-6.81-12.63,50,50,0,0,0-3.06-4c-.88-1.08-1.66-1.87-2.18-2.41s-.83-.79-.83-.79l0,0a.16.16,0,0,0-.24,0A.16.16,0,0,0,456.54,5.07Z"/><path class="cls-2" d="M475.52,10.38s.73,1.15,1.79,3.29a79.23,79.23,0,0,1,3.79,9.13c.68,1.93,1.32,4.06,1.93,6.32s1.15,4.68,1.57,7.21.77,5.14,1,7.81.34,5.41.29,8.14c0,.68,0,1.36,0,2l-.09,2c0,1.36-.19,2.7-.3,4-.26,2.67-.64,5.29-1.11,7.81s-1,4.93-1.66,7.18q-.23.85-.45,1.68l-.5,1.6c-.34,1-.64,2.08-1,3l-1,2.76c-.31.88-.64,1.7-1,2.47-.65,1.53-1.16,2.89-1.7,4l-1.6,3.4a.17.17,0,0,0,.09.23.16.16,0,0,0,.21-.06h0l.58-.82c.36-.53.92-1.31,1.58-2.34s1.41-2.29,2.24-3.78,1.67-3.21,2.57-5.11c.44-1,.83-2,1.28-3,.22-.52.43-1.06.63-1.61s.38-1.12.58-1.69a65.53,65.53,0,0,0,2.11-7.31,77.55,77.55,0,0,0,1.43-8.05c.14-1.38.34-2.78.38-4.19l.12-2.12c0-.7,0-1.41,0-2.12a76.09,76.09,0,0,0-.41-8.44,75,75,0,0,0-1.34-8.07,64.31,64.31,0,0,0-2-7.35,61.69,61.69,0,0,0-2.49-6.34A51.59,51.59,0,0,0,480.5,17c-.82-1.49-1.65-2.73-2.34-3.74s-1.29-1.77-1.69-2.28-.66-.77-.66-.77l0,0a.17.17,0,0,0-.24,0A.18.18,0,0,0,475.52,10.38Z"/></g></g></g></svg>