<svg xmlns="http://www.w3.org/2000/svg" viewBox="0 0 32.56 32.56"><defs><style>.cls-1{fill:#888989;}</style></defs><title>asciugamano</title><g id="Livello_2" data-name="Livello 2"><g id="Livello_1-2" data-name="Livello 1"><g id="Group_40" data-name="Group 40"><path id="Path_65" data-name="Path 65" class="cls-1" d="M30,1.05A2.61,2.61,0,0,0,27.86,2.1h-.59A2.63,2.63,0,0,0,24.7,0H7.89A2.62,2.62,0,0,0,5.32,2.1H4.73A2.63,2.63,0,1,0,4.2,5.78a2.66,2.66,0,0,0,.53-.53h.53V27.84h1V26.79H7.36v1.05h1V26.79H9.46v5.77h1V31.51h1.05v1.05h1V31.51h1.05v1.05h1.05V31.51h1v1.05h1V31.51h1.05v1.05h1.05V31.51H20v1.05H21V31.51h1v1.05h1.05V31.51h1.05v1.05h1.05V31.51h1.05v1.05h1V5.25h.54a2.62,2.62,0,1,0,2.09-4.2ZM26.27,2.63V30.46h-2.1V2.63a2.58,2.58,0,0,0-.54-1.58H24.7A1.57,1.57,0,0,1,26.27,2.63ZM7.89,1.05A1.57,1.57,0,0,1,9.37,2.1h-3A1.56,1.56,0,0,1,7.89,1.05ZM4.14,4.2,4,4.46a1.55,1.55,0,0,1-1.35.79A1.58,1.58,0,1,1,2.56,2.1h.08A1.55,1.55,0,0,1,4,2.89l.15.26H9.46V4.2ZM6.31,25.74V5.25H9.46V25.74ZM10,1.05h9.45A1.58,1.58,0,0,1,21,2.63V27.31h1.05V2.63a2.58,2.58,0,0,0-.54-1.58h0a1.58,1.58,0,0,1,1.57,1.58V30.46H22.07v-2.1H21v2.1H10.51V2.63A2.63,2.63,0,0,0,10,1.05Zm20,4.2a1.57,1.57,0,0,1-1.36-.79l-.15-.26H27.32V3.15h1.12l.15-.26A1.56,1.56,0,1,1,30,5.25Z"/></g></g></g></svg>