<?xml version="1.0" encoding="utf-8"?>
<!-- Generator: Adobe Illustrator 22.0.0, SVG Export Plug-In . SVG Version: 6.00 Build 0)  -->
<svg version="1.1" id="Livello_1" xmlns="http://www.w3.org/2000/svg" xmlns:xlink="http://www.w3.org/1999/xlink" x="0px" y="0px"
	 viewBox="0 0 22.7 22.8" style="enable-background:new 0 0 22.7 22.8;" xml:space="preserve">
<style type="text/css">
	.st0{fill:#888989;}
</style>
<title>asciugamano</title>
<g id="Livello_2_1_">
	<g id="Livello_1-2">
		<g id="Group_40">
			<path id="Path_65" class="st0" d="M21,0.7c-0.6,0-1.1,0.3-1.5,0.7h-0.4C18.9,0.6,18.1,0,17.3,0H5.5C4.6,0,3.9,0.6,3.7,1.5H3.3
				c-0.6-0.8-1.8-1-2.6-0.4s-1,1.8-0.4,2.6s1.8,1,2.6,0.4c0,0,0,0,0,0c0.1-0.1,0.3-0.2,0.4-0.4h0.4v15.8h0.7v-0.7h0.8v0.7h0.7v-0.7
				h0.8v4h0.7V22H8v0.7h0.7V22h0.7v0.7h0.7V22h0.7v0.7h0.7V22h0.7v0.7h0.7V22H14v0.7h0.7V22h0.7v0.7h0.7V22h0.7v0.7h0.7V22h0.7v0.7
				H19V3.7h0.4C20,4.5,21.1,4.6,22,4c0.8-0.6,1-1.8,0.4-2.6C22,1,21.4,0.7,20.8,0.7L21,0.7z M18.4,1.8v19.4h-1.5V1.8
				c0-0.4-0.1-0.8-0.4-1.1h0.7C17.9,0.7,18.4,1.2,18.4,1.8C18.4,1.8,18.4,1.8,18.4,1.8z M5.5,0.7c0.5,0,0.9,0.3,1,0.7H4.5
				C4.6,1,5,0.7,5.5,0.7z M2.9,2.9L2.8,3.1C2.6,3.5,2.2,3.7,1.9,3.7c-0.6,0.1-1.1-0.4-1.2-1s0.4-1.1,1-1.2c0.1,0,0.1,0,0.2,0h0.1
				c0.4,0,0.8,0.2,1,0.6l0.1,0.2h3.7v0.7H2.9z M4.4,18V3.7h2.2V18H4.4z M7,0.7h6.6c0.6,0,1.1,0.5,1.1,1.1v17.2h0.7V1.8
				c0-0.4-0.1-0.8-0.4-1.1l0,0c0.6,0,1.1,0.5,1.1,1.1v19.4h-0.7v-1.5h-0.7v1.5H7.3V1.8C7.4,1.4,7.2,1.1,7,0.7z M21,3.7
				c-0.4,0-0.8-0.2-1-0.6l-0.1-0.2h-0.8V2.2h0.8L20,2c0.3-0.5,1-0.7,1.5-0.4s0.7,1,0.4,1.5C21.7,3.5,21.3,3.7,21,3.7z"/>
		</g>
	</g>
</g>
</svg>
