<svg xmlns="http://www.w3.org/2000/svg" viewBox="4677 2255 70 50">
  <defs>
    <style>
      .cls-1 {
        fill: #b5182d;
      }
    </style>
  </defs>
  <g id="Group_77" data-name="Group 77" transform="translate(4311 -237)">
    <path id="Path_152" data-name="Path 152" class="cls-1" d="M25.688,25A4.7,4.7,0,0,0,21,29.688V31H19.688A4.7,4.7,0,0,0,15,35.688V70.313A4.7,4.7,0,0,0,19.688,75H74.281A4.718,4.718,0,0,0,79,70.313V69h1.313A4.723,4.723,0,0,0,85,64.281V29.688A4.7,4.7,0,0,0,80.313,25Zm0,2H80.313A2.657,2.657,0,0,1,83,29.688V35H23V29.688A2.657,2.657,0,0,1,25.688,27Zm-6,6H21V64.281A4.723,4.723,0,0,0,25.688,69H77v1.313A2.688,2.688,0,0,1,74.281,73H19.688A2.655,2.655,0,0,1,17,70.313V35.688A2.655,2.655,0,0,1,19.688,33ZM23,37H83v7H23Zm0,9H83V64.281A2.683,2.683,0,0,1,80.313,67H25.688A2.683,2.683,0,0,1,23,64.281Zm5.813,6A1,1,0,1,0,29,54H53a1,1,0,1,0,0-2H29A1,1,0,0,0,28.813,52Zm0,7A1,1,0,1,0,29,61H41a1,1,0,1,0,0-2H29A1,1,0,0,0,28.813,59Z" transform="translate(351 2467)"/>
  </g>
</svg>
