<svg xmlns="http://www.w3.org/2000/svg" viewBox="4680 1855 64 64">
  <defs>
    <style>
      .cls-1 {
        fill: #b5182d;
      }
    </style>
  </defs>
  <g id="Group_80" data-name="Group 80" transform="translate(4311 19)">
    <path id="Path_163" data-name="Path 163" class="cls-1" d="M32,2A30,30,0,1,1,2,32,30.066,30.066,0,0,1,32,2m0-2A32,32,0,1,0,64,32,32,32,0,0,0,32,0Z" transform="translate(369 1836)"/>
    <rect id="Rectangle_87" data-name="Rectangle 87" class="cls-1" width="2.25" height="3.375" transform="translate(399.874 1845.5)"/>
    <rect id="Rectangle_88" data-name="Rectangle 88" class="cls-1" width="2.25" height="3.375" transform="translate(399.874 1887.125)"/>
    <rect id="Rectangle_89" data-name="Rectangle 89" class="cls-1" width="3.375" height="2.25" transform="translate(420.124 1866.875)"/>
    <rect id="Rectangle_90" data-name="Rectangle 90" class="cls-1" width="3.375" height="2.25" transform="translate(378.499 1866.875)"/>
    <path id="Path_161" data-name="Path 161" class="cls-1" d="M26.438,30.375a3.938,3.938,0,1,1,3.938-3.937A3.942,3.942,0,0,1,26.438,30.375Zm0-5.625a1.688,1.688,0,1,0,1.688,1.688A1.689,1.689,0,0,0,26.438,24.75Z" transform="translate(374.563 1841.563)"/>
    <rect id="Rectangle_91" data-name="Rectangle 91" class="cls-1" width="2.25" height="14.114" transform="translate(399.874 1851.125)"/>
    <rect id="Rectangle_92" data-name="Rectangle 92" class="cls-1" width="10.688" height="2.25" transform="translate(403.813 1866.875)"/>
  </g>
</svg>
