<?xml version="1.0" encoding="utf-8"?>
<!-- Generator: Adobe Illustrator 22.0.0, SVG Export Plug-In . SVG Version: 6.00 Build 0)  -->
<svg version="1.1" id="Livello_1" xmlns="http://www.w3.org/2000/svg" xmlns:xlink="http://www.w3.org/1999/xlink" x="0px" y="0px"
	 viewBox="0 0 22.7 22.7" style="enable-background:new 0 0 22.7 22.7;" xml:space="preserve">
<style type="text/css">
	.st0{fill:#888989;}
</style>
<title>condizionatore</title>
<g id="Livello_2_1_">
	<g id="Livello_1-2">
		<g id="Group_39">
			<path id="Path_60" class="st0" d="M0,1v10.6h22.7V1H0z M2.5,11v-0.8h17.8V11H2.5z M22,11h-1.1V9.5H1.8V11H0.7V1.7H22L22,11L22,11
				z"/>
			<rect id="Rectangle_33" x="3.5" y="3.2" class="st0" width="15.7" height="0.7"/>
			<rect id="Rectangle_34" x="3.5" y="5.3" class="st0" width="15.7" height="0.7"/>
			<rect id="Rectangle_35" x="3.5" y="7.5" class="st0" width="15.7" height="0.7"/>
			<path id="Path_61" class="st0" d="M3.9,14.4l-0.1-0.6c-0.9,0.1-1.7,0.8-2,1.7c-0.2,0.8,0.1,1.7,0.7,2.3c0.5,0.4,0.8,1.1,0.6,1.8
				c-0.2,0.8-0.8,1.3-1.6,1.5l0.2,0.6c1-0.3,1.8-1,2-2c0.2-0.9-0.1-1.8-0.8-2.4c-0.5-0.4-0.7-1-0.5-1.6C2.6,14.9,3.2,14.5,3.9,14.4z
				"/>
			<path id="Path_62" class="st0" d="M8.4,14.4l-0.1-0.6c-0.9,0.1-1.7,0.8-2,1.7c-0.2,0.8,0,1.7,0.7,2.3c0.5,0.4,0.8,1.1,0.6,1.8
				C7.4,20.3,6.8,20.9,6,21l0.2,0.6c1-0.3,1.8-1,2-2c0.2-0.9-0.1-1.8-0.8-2.4c-0.5-0.4-0.7-1-0.5-1.6C7.1,14.9,7.7,14.4,8.4,14.4z"
				/>
			<path id="Path_63" class="st0" d="M12.9,14.4l-0.1-0.6c-0.9,0.1-1.7,0.8-2,1.7c-0.2,0.8,0,1.7,0.7,2.3c0.5,0.4,0.7,1.1,0.6,1.8
				c-0.2,0.8-0.8,1.3-1.6,1.5l0.2,0.6c1-0.3,1.8-1,2-2c0.2-0.9-0.1-1.8-0.8-2.4c-0.5-0.4-0.7-1-0.5-1.6C11.6,15,12.2,14.5,12.9,14.4
				z"/>
			<path id="Path_64" class="st0" d="M21.4,18.8l-0.2-0.6l-1.2,0.3L19.4,18v-0.7l0.7-0.4l1.2,0.3l0.2-0.6l-0.5-0.2l0.7-0.4l-0.3-0.6
				l-0.6,0.4l0.1-0.5l-0.7-0.2l-0.3,1.1l-0.7,0.4l-0.6-0.4v-0.7l0.9-0.9l-0.5-0.5l-0.4,0.4v-0.8h-0.7v0.7l-0.3-0.4l-0.5,0.5l0.8,0.9
				v0.7l-0.7,0.4l-0.6-0.4l-0.3-1.2l-0.6,0.2l0.2,0.5L15,15.5l-0.3,0.6l0.6,0.4l-0.5,0.1l0.2,0.6l1.2-0.3l0.7,0.4v0.7l-0.6,0.4
				L15,18.1l-0.2,0.6l0.5,0.2l-0.7,0.4l0.3,0.6l0.6-0.4l-0.1,0.5l0.6,0.2l0.3-1.1l0.7-0.4l0.6,0.4v0.7l-0.8,0.9l0.5,0.5l0.4-0.4v0.8
				h0.7v-0.7l0.3,0.4l0.5-0.5l-0.8-0.9v-0.8l0.6-0.4l0.7,0.4l0.3,1.2l0.6-0.2l-0.2-0.5l0.7,0.4l0.3-0.6l-0.6-0.4L21.4,18.8z
				 M18.7,18l-0.6,0.4L17.5,18v-0.7l0.6-0.4l0.6,0.4V18z"/>
		</g>
	</g>
</g>
</svg>
