<svg xmlns="http://www.w3.org/2000/svg" viewBox="0 0 36.74 33.4"><defs><style>.cls-1{fill:#888989;}</style></defs><title>condizionatore</title><g id="Livello_2" data-name="Livello 2"><g id="Livello_1-2" data-name="Livello 1"><g id="Group_39" data-name="Group 39"><path id="Path_60" data-name="Path 60" class="cls-1" d="M0,0V17.2H36.74V0ZM4,16.12v-1.3H32.78v1.3Zm31.65,0H33.82V13.78H2.92V16.2H1.09V1.09H35.7V16.16Z"/><rect id="Rectangle_33" data-name="Rectangle 33" class="cls-1" x="5.64" y="3.47" width="25.51" height="1.09"/><rect id="Rectangle_34" data-name="Rectangle 34" class="cls-1" x="5.64" y="6.97" width="25.51" height="1.09"/><rect id="Rectangle_35" data-name="Rectangle 35" class="cls-1" x="5.64" y="10.48" width="25.51" height="1.09"/><path id="Path_61" data-name="Path 61" class="cls-1" d="M6.35,21.63l-.21-1.05a3.92,3.92,0,0,0-3.22,2.76,3.72,3.72,0,0,0,1.13,3.72,3,3,0,0,1,1,2.88A3.46,3.46,0,0,1,2.46,32.4l.34,1a4.5,4.5,0,0,0,3.25-3.26,4.11,4.11,0,0,0-1.29-3.88,2.65,2.65,0,0,1-.83-2.63A2.91,2.91,0,0,1,6.35,21.63Z"/><path id="Path_62" data-name="Path 62" class="cls-1" d="M13.61,21.63l-.21-1.05a3.9,3.9,0,0,0-3.21,2.76,3.72,3.72,0,0,0,1.12,3.72,3,3,0,0,1,1,2.88A3.46,3.46,0,0,1,9.73,32.4l.33,1a4.53,4.53,0,0,0,3.26-3.26A4.11,4.11,0,0,0,12,26.26a2.66,2.66,0,0,1-.84-2.63A2.81,2.81,0,0,1,13.61,21.63Z"/><path id="Path_63" data-name="Path 63" class="cls-1" d="M20.84,21.63l-.21-1.05a3.91,3.91,0,0,0-3.22,2.76,3.7,3.7,0,0,0,1.13,3.72,3.05,3.05,0,0,1,1,2.88A3.46,3.46,0,0,1,17,32.4l.34,1a4.5,4.5,0,0,0,3.25-3.26,4.11,4.11,0,0,0-1.29-3.88,2.63,2.63,0,0,1-.83-2.63A2.91,2.91,0,0,1,20.84,21.63Z"/><path id="Path_64" data-name="Path 64" class="cls-1" d="M34.66,28.77l-.25-1.05-1.88.46-1.13-.62V26.39l1.09-.63,1.92.55.29-1L33.82,25l1.09-.63-.54-.91-1,.58.2-.75L32.49,23,32,24.8l-1.09.63-1.05-.63V23.63l1.42-1.38-.75-.75-.67.67V20.92H28.73v1.17l-.55-.59-.75.75,1.34,1.38v1.21l-1.09.63-1-.59L26.18,23l-1,.25.25.88-1.09-.63-.54.92,1,.59-.79.21.25,1,1.88-.46,1.08.63V27.6l-1,.58-1.92-.54-.29,1,.87.25-1.08.63.54.92,1-.59-.21.76,1,.29.54-1.84,1.13-.62,1,.58v1.21l-1.34,1.46.76.75.67-.66v1.25h1.09V31.9l.54.58.75-.75L29.9,30.35V29l1-.59,1.08.63.5,1.92,1.05-.25-.26-.88,1.09.63.54-.92-1-.59Zm-4.3-1.21-1.05.58-1-.58V26.35l1-.59,1.05.59Z"/></g></g></g></svg>