<?xml version="1.0" encoding="utf-8"?>
<!-- Generator: Adobe Illustrator 22.0.0, SVG Export Plug-In . SVG Version: 6.00 Build 0)  -->
<svg version="1.1" id="Livello_1" xmlns="http://www.w3.org/2000/svg" xmlns:xlink="http://www.w3.org/1999/xlink" x="0px" y="0px"
	 viewBox="0 0 31.7 31.7" style="enable-background:new 0 0 31.7 31.7;" xml:space="preserve">
<style type="text/css">
	.st0{fill:#888989;}
</style>
<title>doccia</title>
<g id="Livello_2_1_">
	<g id="Livello_1-2">
		<g id="Group_44">
			<path id="Path_87" class="st0" d="M23.5,9.3h-1c-1.1,0-1.9-0.9-1.9-1.9V7.1c0-0.3-0.2-0.5-0.5-0.5c0,0,0,0,0,0h-0.5
				c-0.5-4.1-4.3-7-8.4-6.5c-1.7,0.2-3.3,1-4.5,2.3C5.3,3.8,4.5,5.7,4.5,7.7v24.1h1.1V7.7c0-1.7,0.7-3.4,1.8-4.6
				c2.4-2.6,6.5-2.7,9.1-0.3c1.1,1,1.8,2.3,2,3.8h-0.3c-0.3,0-0.5,0.2-0.5,0.5v0.3c0,1.1-0.9,1.9-1.9,1.9h-1c-2.1,0.1-3.8,1.9-3.7,4
				c0,0,0,0,0,0v1.3c0,0.3,0.2,0.5,0.5,0.5c0,0,0,0,0,0h15c0.3,0,0.5-0.2,0.5-0.5l0,0v-1.3C27.3,11.1,25.6,9.4,23.5,9.3z M14.8,10.3
				h1c1.5,0,2.8-1.2,2.9-2.7h0.8c0.1,1.5,1.4,2.7,3,2.7h1c1.1,0,2.1,0.7,2.4,1.8H12.4C12.8,11,13.7,10.3,14.8,10.3z M26.2,14h-14
				v-0.9h14L26.2,14L26.2,14z"/>
			<path id="Path_88" class="st0" d="M13.1,22.2h-0.4c-0.2,0-0.4,0.2-0.4,0.4l0,0v0.4c0,0.2,0.2,0.4,0.4,0.4h0.4
				c0.2,0,0.4-0.2,0.4-0.4l0,0v-0.4C13.4,22.4,13.3,22.2,13.1,22.2L13.1,22.2z"/>
			<path id="Path_89" class="st0" d="M13.1,20.1h-0.4c-0.2,0-0.4,0.2-0.4,0.4l0,0v0.4c0,0.2,0.2,0.4,0.4,0.4h0.4
				c0.2,0,0.4-0.2,0.4-0.4l0,0v-0.4C13.4,20.2,13.3,20.1,13.1,20.1z"/>
			<path id="Path_90" class="st0" d="M13.1,15.9h-0.4c-0.2,0-0.4,0.2-0.4,0.4v0.4c0,0.2,0.2,0.4,0.4,0.4h0.4c0.2,0,0.4-0.2,0.4-0.4
				l0,0v-0.4C13.4,16,13.3,15.9,13.1,15.9z"/>
			<path id="Path_91" class="st0" d="M13.1,24.3h-0.4c-0.2,0-0.4,0.2-0.4,0.4V25c0,0.2,0.2,0.4,0.4,0.4h0.4c0.2,0,0.4-0.2,0.4-0.4
				l0,0v-0.4C13.4,24.4,13.3,24.3,13.1,24.3z"/>
			<path id="Path_92" class="st0" d="M13.1,18h-0.4c-0.2,0-0.3,0.1-0.4,0.3c0,0,0,0,0,0l0,0v0.4c0,0.2,0.2,0.3,0.4,0.3h0.4
				c0.2,0,0.3-0.2,0.4-0.3v-0.4C13.4,18.1,13.3,18,13.1,18C13.1,18,13.1,18,13.1,18z"/>
			<path id="Path_93" class="st0" d="M13.1,30.5h-0.4c-0.2,0-0.4,0.2-0.4,0.4l0,0l0,0v0.4c0,0.2,0.1,0.3,0.3,0.4c0,0,0,0,0,0h0.4
				c0.2,0,0.3-0.1,0.4-0.3c0,0,0,0,0,0l0,0v-0.4C13.4,30.7,13.3,30.5,13.1,30.5L13.1,30.5L13.1,30.5z"/>
			<path id="Path_94" class="st0" d="M13.1,28.4h-0.4c-0.2,0-0.4,0.2-0.4,0.4l0,0l0,0v0.4c0,0.2,0.2,0.4,0.4,0.4h0h0.4
				c0.2,0,0.4-0.2,0.4-0.4l0,0l0,0v-0.4C13.4,28.6,13.3,28.4,13.1,28.4L13.1,28.4z"/>
			<path id="Path_95" class="st0" d="M13.1,26.3h-0.4c-0.2,0-0.4,0.2-0.4,0.4l0,0v0.4c0,0.2,0.2,0.4,0.4,0.4h0.4
				c0.2,0,0.3-0.2,0.4-0.4v-0.4C13.4,26.5,13.3,26.3,13.1,26.3z"/>
			<path id="Path_96" class="st0" d="M15.6,18h-0.4c-0.2,0-0.3,0.1-0.4,0.3c0,0,0,0,0,0l0,0v0.4c0,0.2,0.2,0.3,0.4,0.3h0.4
				c0.2,0,0.3-0.2,0.4-0.3v-0.4C15.9,18.1,15.8,18,15.6,18C15.6,18,15.6,18,15.6,18z"/>
			<path id="Path_97" class="st0" d="M15.6,24.3h-0.4c-0.2,0-0.3,0.2-0.4,0.4V25c0,0.2,0.2,0.4,0.4,0.4h0.4c0.2,0,0.4-0.2,0.4-0.4
				l0,0v-0.4C15.9,24.4,15.8,24.3,15.6,24.3z"/>
			<path id="Path_98" class="st0" d="M15.6,20.1h-0.4c-0.2,0-0.4,0.2-0.4,0.4l0,0v0.4c0,0.2,0.2,0.4,0.4,0.4h0.4
				c0.2,0,0.4-0.2,0.4-0.4l0,0v-0.4C15.9,20.2,15.8,20.1,15.6,20.1z"/>
			<path id="Path_99" class="st0" d="M15.6,26.3h-0.4c-0.2,0-0.4,0.2-0.4,0.4l0,0v0.4c0,0.2,0.2,0.3,0.4,0.4h0.4
				c0.2,0,0.4-0.2,0.4-0.4v-0.4C15.9,26.5,15.8,26.3,15.6,26.3z"/>
			<path id="Path_100" class="st0" d="M15.6,15.9h-0.4c-0.2,0-0.3,0.2-0.4,0.4v0.4c0,0.2,0.2,0.4,0.4,0.4h0.4c0.2,0,0.4-0.2,0.4-0.4
				l0,0v-0.4C15.9,16,15.8,15.9,15.6,15.9z"/>
			<path id="Path_101" class="st0" d="M15.6,30.5h-0.4c-0.2,0-0.4,0.2-0.4,0.4l0,0l0,0v0.4c0,0.2,0.1,0.3,0.3,0.4c0,0,0,0,0,0h0.4
				c0.2,0,0.3-0.1,0.4-0.3c0,0,0,0,0,0l0,0v-0.4C15.9,30.7,15.8,30.5,15.6,30.5L15.6,30.5L15.6,30.5z"/>
			<path id="Path_102" class="st0" d="M15.6,28.4h-0.4c-0.2,0-0.4,0.2-0.4,0.4l0,0l0,0v0.4c0,0.2,0.2,0.4,0.4,0.4h0h0.4
				c0.2,0,0.4-0.2,0.4-0.4l0,0l0,0v-0.4C15.9,28.6,15.8,28.4,15.6,28.4L15.6,28.4z"/>
			<path id="Path_103" class="st0" d="M15.6,22.2h-0.4c-0.2,0-0.4,0.2-0.4,0.4l0,0v0.4c0,0.2,0.2,0.4,0.4,0.4h0.4
				c0.2,0,0.4-0.2,0.4-0.4l0,0v-0.4C15.9,22.4,15.8,22.2,15.6,22.2L15.6,22.2z"/>
			<path id="Path_104" class="st0" d="M18.1,22.2h-0.3c-0.2,0-0.4,0.2-0.4,0.4l0,0v0.4c0,0.2,0.2,0.4,0.4,0.4h0.4
				c0.2,0,0.4-0.2,0.4-0.4l0,0v-0.4C18.5,22.4,18.3,22.2,18.1,22.2L18.1,22.2z"/>
			<path id="Path_105" class="st0" d="M18.1,20.1h-0.3c-0.2,0-0.4,0.2-0.4,0.4l0,0v0.4c0,0.2,0.2,0.4,0.4,0.4h0.4
				c0.2,0,0.4-0.2,0.4-0.4l0,0v-0.4C18.5,20.2,18.3,20.1,18.1,20.1L18.1,20.1z"/>
			<path id="Path_106" class="st0" d="M18.1,24.3h-0.3c-0.2,0-0.4,0.2-0.4,0.4V25c0,0.2,0.2,0.4,0.4,0.4h0.4c0.2,0,0.4-0.2,0.4-0.4
				l0,0v-0.4C18.5,24.4,18.3,24.3,18.1,24.3C18.1,24.3,18.1,24.3,18.1,24.3z"/>
			<path id="Path_107" class="st0" d="M18.1,15.9h-0.3c-0.2,0-0.4,0.2-0.4,0.4v0.4c0,0.2,0.2,0.4,0.4,0.4h0.4c0.2,0,0.4-0.2,0.4-0.4
				l0,0v-0.4C18.5,16,18.3,15.9,18.1,15.9C18.1,15.8,18.1,15.9,18.1,15.9z"/>
			<path id="Path_108" class="st0" d="M18.1,28.4h-0.3c-0.2,0-0.4,0.2-0.4,0.4l0,0l0,0v0.4c0,0.2,0.2,0.4,0.4,0.4l0,0h0.4
				c0.2,0,0.4-0.2,0.4-0.4l0,0l0,0v-0.4C18.5,28.6,18.3,28.4,18.1,28.4L18.1,28.4L18.1,28.4z"/>
			<path id="Path_109" class="st0" d="M18.1,26.3h-0.3c-0.2,0-0.4,0.2-0.4,0.4l0,0v0.4c0,0.2,0.2,0.4,0.4,0.4h0.4
				c0.2,0,0.4-0.2,0.4-0.4v-0.4C18.5,26.5,18.3,26.3,18.1,26.3L18.1,26.3z"/>
			<path id="Path_110" class="st0" d="M18.1,30.5h-0.3c-0.2,0-0.4,0.2-0.4,0.4l0,0l0,0v0.4c0,0.2,0.1,0.3,0.3,0.4c0,0,0,0,0,0h0.4
				c0.2,0,0.3-0.1,0.4-0.3c0,0,0,0,0,0l0,0v-0.4C18.5,30.7,18.3,30.5,18.1,30.5L18.1,30.5L18.1,30.5z"/>
			<path id="Path_111" class="st0" d="M18.1,18h-0.3c-0.2,0-0.3,0.1-0.4,0.3c0,0,0,0,0,0l0,0v0.4c0,0.2,0.2,0.3,0.4,0.3h0.4
				c0.2,0,0.3-0.2,0.4-0.3v-0.4C18.5,18.1,18.3,18,18.1,18C18.1,18,18.1,18,18.1,18L18.1,18z"/>
			<path id="Path_112" class="st0" d="M20.6,15.9h-0.4c-0.2,0-0.3,0.2-0.4,0.4v0.4c0,0.2,0.2,0.4,0.4,0.4h0.4c0.2,0,0.4-0.1,0.4-0.3
				c0,0,0,0,0,0l0,0v-0.4C21,16,20.8,15.9,20.6,15.9z"/>
			<path id="Path_113" class="st0" d="M20.6,20.1h-0.4c-0.2,0-0.4,0.2-0.4,0.4l0,0v0.4c0,0.2,0.2,0.4,0.4,0.4h0.4
				c0.2,0,0.4-0.1,0.4-0.3c0,0,0,0,0,0l0,0v-0.4C21,20.2,20.8,20.1,20.6,20.1L20.6,20.1z"/>
			<path id="Path_114" class="st0" d="M20.6,30.5h-0.4c-0.2,0-0.4,0.2-0.4,0.4l0,0l0,0v0.4c0,0.2,0.1,0.3,0.3,0.4c0,0,0,0,0,0h0.4
				c0.2,0,0.4-0.1,0.4-0.3c0,0,0,0,0,0l0,0v-0.4C21,30.7,20.8,30.5,20.6,30.5C20.6,30.5,20.6,30.5,20.6,30.5L20.6,30.5z"/>
			<path id="Path_115" class="st0" d="M20.6,22.2h-0.4c-0.2,0-0.4,0.2-0.4,0.4l0,0v0.4c0,0.2,0.2,0.4,0.4,0.4h0.4
				c0.2,0,0.4-0.1,0.4-0.3c0,0,0,0,0,0l0,0v-0.4C21,22.4,20.8,22.2,20.6,22.2L20.6,22.2z"/>
			<path id="Path_116" class="st0" d="M20.6,18h-0.4c-0.2,0-0.3,0.1-0.4,0.3c0,0,0,0,0,0l0,0v0.4c0,0.2,0.2,0.3,0.4,0.3h0.4
				c0.2,0,0.3-0.2,0.4-0.3v-0.4C21,18.1,20.8,18,20.6,18C20.6,18,20.6,18,20.6,18L20.6,18z"/>
			<path id="Path_117" class="st0" d="M20.6,24.3h-0.4c-0.2,0-0.3,0.2-0.4,0.4V25c0,0.2,0.2,0.4,0.4,0.4h0.4c0.2,0,0.4-0.1,0.4-0.3
				c0,0,0,0,0,0l0,0v-0.4C21,24.4,20.8,24.3,20.6,24.3z"/>
			<path id="Path_118" class="st0" d="M20.6,26.3h-0.4c-0.2,0-0.4,0.2-0.4,0.4l0,0v0.4c0,0.2,0.2,0.3,0.4,0.4h0.4
				c0.2,0,0.4-0.2,0.4-0.4v-0.4C21,26.5,20.8,26.3,20.6,26.3L20.6,26.3z"/>
			<path id="Path_119" class="st0" d="M20.6,28.4h-0.4c-0.2,0-0.4,0.2-0.4,0.4l0,0l0,0v0.4c0,0.2,0.2,0.4,0.4,0.4c0,0,0,0,0,0h0.4
				c0.2,0,0.4-0.1,0.4-0.3c0,0,0,0,0,0l0,0v-0.4C21,28.6,20.8,28.4,20.6,28.4C20.6,28.4,20.6,28.4,20.6,28.4L20.6,28.4z"/>
			<path id="Path_120" class="st0" d="M23.1,20.1h-0.4c-0.2,0-0.4,0.2-0.4,0.4l0,0v0.4c0,0.2,0.2,0.4,0.4,0.4h0.4
				c0.2,0,0.4-0.2,0.4-0.4l0,0v-0.4C23.5,20.2,23.3,20.1,23.1,20.1z"/>
			<path id="Path_121" class="st0" d="M23.1,18h-0.4c-0.2,0-0.3,0.1-0.4,0.3c0,0,0,0,0,0l0,0v0.4c0,0.2,0.2,0.3,0.4,0.3h0.4
				c0.2,0,0.3-0.2,0.4-0.3v-0.4C23.5,18.1,23.3,18,23.1,18C23.1,18,23.1,18,23.1,18z"/>
			<path id="Path_122" class="st0" d="M23.1,15.9h-0.4c-0.2,0-0.4,0.2-0.4,0.4v0.4c0,0.2,0.2,0.4,0.4,0.4h0.4c0.2,0,0.4-0.2,0.4-0.4
				l0,0v-0.4C23.5,16,23.3,15.9,23.1,15.9z"/>
			<path id="Path_123" class="st0" d="M23.1,22.2h-0.4c-0.2,0-0.4,0.2-0.4,0.4l0,0v0.4c0,0.2,0.2,0.4,0.4,0.4h0.4
				c0.2,0,0.4-0.2,0.4-0.4l0,0v-0.4C23.5,22.4,23.3,22.2,23.1,22.2L23.1,22.2z"/>
			<path id="Path_124" class="st0" d="M23.1,30.5h-0.4c-0.2,0-0.4,0.2-0.4,0.4l0,0l0,0v0.4c0,0.2,0.1,0.3,0.3,0.4c0,0,0,0,0,0h0.4
				c0.2,0,0.3-0.1,0.4-0.3c0,0,0,0,0,0l0,0v-0.4C23.5,30.7,23.3,30.5,23.1,30.5C23.1,30.5,23.1,30.5,23.1,30.5L23.1,30.5z"/>
			<path id="Path_125" class="st0" d="M23.1,28.4h-0.4c-0.2,0-0.4,0.2-0.4,0.4l0,0l0,0v0.4c0,0.2,0.2,0.4,0.4,0.4c0,0,0,0,0,0h0.4
				c0.2,0,0.4-0.2,0.4-0.4l0,0l0,0v-0.4C23.5,28.6,23.3,28.4,23.1,28.4C23.1,28.4,23.1,28.4,23.1,28.4z"/>
			<path id="Path_126" class="st0" d="M23.1,26.3h-0.4c-0.2,0-0.4,0.2-0.4,0.4l0,0v0.4c0,0.2,0.2,0.4,0.4,0.4h0.4
				c0.2,0,0.4-0.2,0.4-0.4v-0.4C23.5,26.5,23.3,26.3,23.1,26.3z"/>
			<path id="Path_127" class="st0" d="M23.1,24.3h-0.4c-0.2,0-0.4,0.2-0.4,0.4V25c0,0.2,0.2,0.4,0.4,0.4h0.4c0.2,0,0.4-0.2,0.4-0.4
				l0,0v-0.4C23.5,24.4,23.3,24.3,23.1,24.3z"/>
			<path id="Path_128" class="st0" d="M25.6,22.2h-0.4c-0.2,0-0.4,0.2-0.4,0.4l0,0v0.4c0,0.2,0.2,0.4,0.4,0.4h0.4
				c0.2,0,0.4-0.2,0.4-0.4l0,0v-0.4C26,22.4,25.8,22.2,25.6,22.2L25.6,22.2z"/>
			<path id="Path_129" class="st0" d="M25.6,20.1h-0.4c-0.2,0-0.4,0.2-0.4,0.4l0,0v0.4c0,0.2,0.2,0.4,0.4,0.4h0.4
				c0.2,0,0.4-0.2,0.4-0.4l0,0v-0.4C26,20.2,25.8,20.1,25.6,20.1z"/>
			<path id="Path_130" class="st0" d="M25.6,24.3h-0.4c-0.2,0-0.4,0.2-0.4,0.4V25c0,0.2,0.2,0.4,0.4,0.4h0.4c0.2,0,0.4-0.2,0.4-0.4
				l0,0v-0.4C26,24.4,25.8,24.3,25.6,24.3z"/>
			<path id="Path_131" class="st0" d="M25.6,18h-0.4c-0.2,0-0.3,0.1-0.4,0.3c0,0,0,0,0,0l0,0v0.4c0,0.2,0.2,0.3,0.4,0.3h0.4
				c0.2,0,0.3-0.2,0.4-0.3v-0.4C26,18.1,25.8,18,25.6,18C25.7,18,25.6,18,25.6,18z"/>
			<path id="Path_132" class="st0" d="M25.6,30.5h-0.4c-0.2,0-0.4,0.2-0.4,0.4l0,0l0,0v0.4c0,0.2,0.1,0.3,0.3,0.4c0,0,0,0,0,0h0.4
				c0.2,0,0.3-0.1,0.4-0.3c0,0,0,0,0,0l0,0v-0.4C26,30.7,25.8,30.5,25.6,30.5C25.6,30.5,25.6,30.5,25.6,30.5L25.6,30.5z"/>
			<path id="Path_133" class="st0" d="M25.6,15.9h-0.4c-0.2,0-0.4,0.2-0.4,0.4v0.4c0,0.2,0.2,0.4,0.4,0.4h0.4c0.2,0,0.4-0.2,0.4-0.4
				l0,0v-0.4C26,16,25.8,15.9,25.6,15.9z"/>
			<path id="Path_134" class="st0" d="M25.6,26.3h-0.4c-0.2,0-0.4,0.2-0.4,0.4l0,0v0.4c0,0.2,0.2,0.4,0.4,0.4h0.4
				c0.2,0,0.3-0.2,0.4-0.4v-0.4C26,26.5,25.8,26.3,25.6,26.3z"/>
			<path id="Path_135" class="st0" d="M25.6,28.4h-0.4c-0.2,0-0.4,0.2-0.4,0.4l0,0l0,0v0.4c0,0.2,0.2,0.4,0.4,0.4c0,0,0,0,0,0h0.4
				c0.2,0,0.4-0.2,0.4-0.4l0,0l0,0v-0.4C26,28.6,25.8,28.4,25.6,28.4C25.6,28.4,25.6,28.4,25.6,28.4z"/>
		</g>
	</g>
</g>
</svg>
