<svg xmlns="http://www.w3.org/2000/svg" viewBox="0 0 25.67 36"><defs><style>.cls-1{fill:#888989;}</style></defs><title>doccia</title><g id="Livello_2" data-name="Livello 2"><g id="Livello_1-2" data-name="Livello 1"><g id="Group_44" data-name="Group 44"><path id="Path_87" data-name="Path 87" class="cls-1" d="M21.5,10.53H20.38A2.18,2.18,0,0,1,18.2,8.36V8.05a.59.59,0,0,0-.59-.6H17A8.51,8.51,0,0,0,2.39,2.7,8.85,8.85,0,0,0,0,8.76V36H1.19V8.76A7.68,7.68,0,0,1,3.26,3.51,7.32,7.32,0,0,1,15.85,7.45h-.29A.59.59,0,0,0,15,8v.32a2.17,2.17,0,0,1-2.17,2.17H11.68A4.38,4.38,0,0,0,7.5,15.08v1.44a.58.58,0,0,0,.59.59h17a.59.59,0,0,0,.59-.59V15.08A4.39,4.39,0,0,0,21.5,10.53Zm-9.82,1.19H12.8a3.35,3.35,0,0,0,3.34-3.08H17a3.36,3.36,0,0,0,3.35,3.08H21.5a3,3,0,0,1,2.74,2H8.92A3,3,0,0,1,11.68,11.72Zm12.81,4.21H8.68v-1h15.8v1Z"/><path id="Path_88" data-name="Path 88" class="cls-1" d="M9.67,25.15h-.4a.4.4,0,0,0-.4.4h0V26a.4.4,0,0,0,.4.4h.4a.4.4,0,0,0,.4-.4h0v-.4a.4.4,0,0,0-.4-.4Z"/><path id="Path_89" data-name="Path 89" class="cls-1" d="M9.67,22.78h-.4a.4.4,0,0,0-.4.4h0v.4a.4.4,0,0,0,.4.4h.4a.4.4,0,0,0,.4-.4h0v-.4a.4.4,0,0,0-.4-.4Z"/><path id="Path_90" data-name="Path 90" class="cls-1" d="M9.67,18h-.4a.4.4,0,0,0-.4.4v.4a.4.4,0,0,0,.4.4h.4a.4.4,0,0,0,.4-.4h0v-.4A.41.41,0,0,0,9.67,18Z"/><path id="Path_91" data-name="Path 91" class="cls-1" d="M9.67,27.52h-.4a.4.4,0,0,0-.4.4v.4a.4.4,0,0,0,.4.4h.4a.4.4,0,0,0,.4-.4h0v-.4A.41.41,0,0,0,9.67,27.52Z"/><path id="Path_92" data-name="Path 92" class="cls-1" d="M9.67,20.41h-.4a.39.39,0,0,0-.4.4h0v.4a.4.4,0,0,0,.4.39h.4a.41.41,0,0,0,.4-.39v-.4a.39.39,0,0,0-.4-.4Z"/><path id="Path_93" data-name="Path 93" class="cls-1" d="M9.67,34.63h-.4a.4.4,0,0,0-.4.4h0v.4a.39.39,0,0,0,.4.4h.4a.39.39,0,0,0,.4-.4h0V35a.4.4,0,0,0-.4-.4Z"/><path id="Path_94" data-name="Path 94" class="cls-1" d="M9.67,32.26h-.4a.4.4,0,0,0-.4.4h0v.4a.4.4,0,0,0,.4.4h.4a.4.4,0,0,0,.4-.4h0v-.4a.4.4,0,0,0-.4-.4Z"/><path id="Path_95" data-name="Path 95" class="cls-1" d="M9.67,29.89h-.4a.4.4,0,0,0-.4.4h0v.4a.4.4,0,0,0,.4.4h.4a.41.41,0,0,0,.4-.4v-.4a.4.4,0,0,0-.4-.4Z"/><path id="Path_96" data-name="Path 96" class="cls-1" d="M12.51,20.41h-.4a.39.39,0,0,0-.4.4h0v.4a.41.41,0,0,0,.4.39h.4a.4.4,0,0,0,.4-.39v-.4a.39.39,0,0,0-.4-.4Z"/><path id="Path_97" data-name="Path 97" class="cls-1" d="M12.51,27.52h-.4a.41.41,0,0,0-.4.4v.4a.4.4,0,0,0,.4.4h.4a.4.4,0,0,0,.4-.4h0v-.4A.4.4,0,0,0,12.51,27.52Z"/><path id="Path_98" data-name="Path 98" class="cls-1" d="M12.51,22.78h-.4a.4.4,0,0,0-.4.4h0v.4a.4.4,0,0,0,.4.4h.4a.4.4,0,0,0,.4-.4h0v-.4a.4.4,0,0,0-.4-.4Z"/><path id="Path_99" data-name="Path 99" class="cls-1" d="M12.51,29.89h-.4a.4.4,0,0,0-.4.4h0v.4a.41.41,0,0,0,.4.4h.4a.4.4,0,0,0,.4-.4v-.4a.4.4,0,0,0-.4-.4Z"/><path id="Path_100" data-name="Path 100" class="cls-1" d="M12.51,18h-.4a.41.41,0,0,0-.4.4v.4a.4.4,0,0,0,.4.4h.4a.4.4,0,0,0,.4-.4h0v-.4A.4.4,0,0,0,12.51,18Z"/><path id="Path_101" data-name="Path 101" class="cls-1" d="M12.51,34.63h-.4a.4.4,0,0,0-.4.4h0v.4a.39.39,0,0,0,.4.4h.4a.39.39,0,0,0,.4-.4h0V35a.4.4,0,0,0-.4-.4Z"/><path id="Path_102" data-name="Path 102" class="cls-1" d="M12.51,32.26h-.4a.4.4,0,0,0-.4.4h0v.4a.4.4,0,0,0,.4.4h.4a.4.4,0,0,0,.4-.4h0v-.4a.4.4,0,0,0-.4-.4Z"/><path id="Path_103" data-name="Path 103" class="cls-1" d="M12.51,25.15h-.4a.4.4,0,0,0-.4.4h0V26a.4.4,0,0,0,.4.4h.4a.4.4,0,0,0,.4-.4h0v-.4a.4.4,0,0,0-.4-.4Z"/><path id="Path_104" data-name="Path 104" class="cls-1" d="M15.36,25.15H15a.4.4,0,0,0-.4.4h0V26a.4.4,0,0,0,.4.4h.4a.4.4,0,0,0,.4-.4h0v-.4a.4.4,0,0,0-.4-.4Z"/><path id="Path_105" data-name="Path 105" class="cls-1" d="M15.36,22.78H15a.4.4,0,0,0-.4.4h0v.4a.4.4,0,0,0,.4.4h.4a.4.4,0,0,0,.4-.4h0v-.4a.4.4,0,0,0-.4-.4Z"/><path id="Path_106" data-name="Path 106" class="cls-1" d="M15.36,27.52H15a.4.4,0,0,0-.4.4v.4a.4.4,0,0,0,.4.4h.4a.4.4,0,0,0,.4-.4h0v-.4A.4.4,0,0,0,15.36,27.52Z"/><path id="Path_107" data-name="Path 107" class="cls-1" d="M15.36,18H15a.4.4,0,0,0-.4.4v.4a.4.4,0,0,0,.4.4h.4a.4.4,0,0,0,.4-.4h0v-.4A.4.4,0,0,0,15.36,18Z"/><path id="Path_108" data-name="Path 108" class="cls-1" d="M15.36,32.26H15a.4.4,0,0,0-.4.4h0v.4a.4.4,0,0,0,.4.4h.4a.4.4,0,0,0,.4-.4h0v-.4a.4.4,0,0,0-.4-.4Z"/><path id="Path_109" data-name="Path 109" class="cls-1" d="M15.36,29.89H15a.4.4,0,0,0-.4.4h0v.4a.4.4,0,0,0,.4.4h.4a.4.4,0,0,0,.4-.4v-.4a.4.4,0,0,0-.4-.4Z"/><path id="Path_110" data-name="Path 110" class="cls-1" d="M15.36,34.63H15a.4.4,0,0,0-.4.4h0v.4a.39.39,0,0,0,.4.4h.4a.39.39,0,0,0,.4-.4h0V35a.4.4,0,0,0-.4-.4Z"/><path id="Path_111" data-name="Path 111" class="cls-1" d="M15.36,20.41H15a.39.39,0,0,0-.4.4h0v.4a.4.4,0,0,0,.4.39h.4a.4.4,0,0,0,.4-.39v-.4a.39.39,0,0,0-.4-.4Z"/><path id="Path_112" data-name="Path 112" class="cls-1" d="M18.2,18h-.4a.41.41,0,0,0-.4.4v.4a.4.4,0,0,0,.4.4h.4a.4.4,0,0,0,.41-.4h0v-.4A.42.42,0,0,0,18.2,18Z"/><path id="Path_113" data-name="Path 113" class="cls-1" d="M18.2,22.78h-.4a.4.4,0,0,0-.4.4h0v.4a.4.4,0,0,0,.4.4h.4a.4.4,0,0,0,.41-.4h0v-.4a.4.4,0,0,0-.4-.4Z"/><path id="Path_114" data-name="Path 114" class="cls-1" d="M18.2,34.63h-.4a.4.4,0,0,0-.4.4h0v.4a.39.39,0,0,0,.4.4h.4a.4.4,0,0,0,.41-.4h0V35a.4.4,0,0,0-.4-.4Z"/><path id="Path_115" data-name="Path 115" class="cls-1" d="M18.2,25.15h-.4a.4.4,0,0,0-.4.4h0V26a.4.4,0,0,0,.4.4h.4a.4.4,0,0,0,.41-.4h0v-.4a.4.4,0,0,0-.4-.4Z"/><path id="Path_116" data-name="Path 116" class="cls-1" d="M18.2,20.41h-.4a.39.39,0,0,0-.4.4h0v.4a.41.41,0,0,0,.4.39h.4a.42.42,0,0,0,.41-.39v-.4a.39.39,0,0,0-.4-.4Z"/><path id="Path_117" data-name="Path 117" class="cls-1" d="M18.2,27.52h-.4a.41.41,0,0,0-.4.4v.4a.4.4,0,0,0,.4.4h.4a.4.4,0,0,0,.41-.4h0v-.4A.42.42,0,0,0,18.2,27.52Z"/><path id="Path_118" data-name="Path 118" class="cls-1" d="M18.2,29.89h-.4a.4.4,0,0,0-.4.4h0v.4a.41.41,0,0,0,.4.4h.4a.42.42,0,0,0,.41-.4v-.4a.4.4,0,0,0-.4-.4Z"/><path id="Path_119" data-name="Path 119" class="cls-1" d="M18.2,32.26h-.4a.4.4,0,0,0-.4.4h0v.4a.4.4,0,0,0,.4.4h.4a.4.4,0,0,0,.41-.4h0v-.4a.4.4,0,0,0-.4-.4Z"/><path id="Path_120" data-name="Path 120" class="cls-1" d="M21.05,22.78h-.4a.4.4,0,0,0-.4.4h0v.4a.4.4,0,0,0,.4.4h.4a.4.4,0,0,0,.4-.4h0v-.4a.4.4,0,0,0-.4-.4Z"/><path id="Path_121" data-name="Path 121" class="cls-1" d="M21.05,20.41h-.4a.39.39,0,0,0-.4.4h0v.4a.4.4,0,0,0,.4.39h.4a.4.4,0,0,0,.4-.39v-.4a.39.39,0,0,0-.4-.4Z"/><path id="Path_122" data-name="Path 122" class="cls-1" d="M21.05,18h-.4a.4.4,0,0,0-.4.4v.4a.4.4,0,0,0,.4.4h.4a.4.4,0,0,0,.4-.4h0v-.4A.4.4,0,0,0,21.05,18Z"/><path id="Path_123" data-name="Path 123" class="cls-1" d="M21.05,25.15h-.4a.4.4,0,0,0-.4.4h0V26a.4.4,0,0,0,.4.4h.4a.4.4,0,0,0,.4-.4h0v-.4a.4.4,0,0,0-.4-.4Z"/><path id="Path_124" data-name="Path 124" class="cls-1" d="M21.05,34.63h-.4a.4.4,0,0,0-.4.4h0v.4a.39.39,0,0,0,.4.4h.4a.39.39,0,0,0,.4-.4h0V35a.4.4,0,0,0-.4-.4Z"/><path id="Path_125" data-name="Path 125" class="cls-1" d="M21.05,32.26h-.4a.4.4,0,0,0-.4.4h0v.4a.4.4,0,0,0,.4.4h.4a.4.4,0,0,0,.4-.4h0v-.4a.4.4,0,0,0-.4-.4Z"/><path id="Path_126" data-name="Path 126" class="cls-1" d="M21.05,29.89h-.4a.4.4,0,0,0-.4.4h0v.4a.4.4,0,0,0,.4.4h.4a.4.4,0,0,0,.4-.4v-.4a.4.4,0,0,0-.4-.4Z"/><path id="Path_127" data-name="Path 127" class="cls-1" d="M21.05,27.52h-.4a.4.4,0,0,0-.4.4v.4a.4.4,0,0,0,.4.4h.4a.4.4,0,0,0,.4-.4h0v-.4A.4.4,0,0,0,21.05,27.52Z"/><path id="Path_128" data-name="Path 128" class="cls-1" d="M23.9,25.15h-.4a.4.4,0,0,0-.4.4h0V26a.4.4,0,0,0,.4.4h.4a.4.4,0,0,0,.4-.4h0v-.4a.4.4,0,0,0-.4-.4Z"/><path id="Path_129" data-name="Path 129" class="cls-1" d="M23.9,22.78h-.4a.4.4,0,0,0-.4.4h0v.4a.4.4,0,0,0,.4.4h.4a.4.4,0,0,0,.4-.4h0v-.4a.4.4,0,0,0-.4-.4Z"/><path id="Path_130" data-name="Path 130" class="cls-1" d="M23.9,27.52h-.4a.4.4,0,0,0-.4.4v.4a.4.4,0,0,0,.4.4h.4a.4.4,0,0,0,.4-.4h0v-.4A.41.41,0,0,0,23.9,27.52Z"/><path id="Path_131" data-name="Path 131" class="cls-1" d="M23.9,20.41h-.4a.39.39,0,0,0-.4.4h0v.4a.4.4,0,0,0,.4.39h.4a.41.41,0,0,0,.4-.39v-.4a.39.39,0,0,0-.4-.4Z"/><path id="Path_132" data-name="Path 132" class="cls-1" d="M23.9,34.63h-.4a.4.4,0,0,0-.4.4h0v.4a.39.39,0,0,0,.4.4h.4a.39.39,0,0,0,.4-.4h0V35a.4.4,0,0,0-.4-.4Z"/><path id="Path_133" data-name="Path 133" class="cls-1" d="M23.9,18h-.4a.4.4,0,0,0-.4.4v.4a.4.4,0,0,0,.4.4h.4a.4.4,0,0,0,.4-.4h0v-.4A.41.41,0,0,0,23.9,18Z"/><path id="Path_134" data-name="Path 134" class="cls-1" d="M23.9,29.89h-.4a.4.4,0,0,0-.4.4h0v.4a.4.4,0,0,0,.4.4h.4a.41.41,0,0,0,.4-.4v-.4a.4.4,0,0,0-.4-.4Z"/><path id="Path_135" data-name="Path 135" class="cls-1" d="M23.9,32.26h-.4a.4.4,0,0,0-.4.4h0v.4a.4.4,0,0,0,.4.4h.4a.4.4,0,0,0,.4-.4h0v-.4a.4.4,0,0,0-.4-.4Z"/></g></g></g></svg>