<?xml version="1.0" encoding="utf-8"?>
<!-- Generator: Adobe Illustrator 22.0.0, SVG Export Plug-In . SVG Version: 6.00 Build 0)  -->
<svg version="1.1" id="Livello_1" xmlns="http://www.w3.org/2000/svg" xmlns:xlink="http://www.w3.org/1999/xlink" x="0px" y="0px"
	 viewBox="0 0 22.7 22.7" style="enable-background:new 0 0 22.7 22.7;" xml:space="preserve">
<style type="text/css">
	.st0{fill:#888989;}
</style>
<title>drink</title>
<g id="Livello_2_1_">
	<g id="Livello_1-2">
		<g id="Group_41">
			<path id="Path_66" class="st0" d="M21.5,19V9.8c1.2-0.8,1.6-2.3,0.8-3.6c-0.8-1.2-2.3-1.6-3.6-0.8c-0.8,0.5-1.2,1.3-1.2,2.2
				c0,0,0,0,0,0.1h-4.8l0.1-0.4h-2.2l1.6-3.8l3.1-0.9V0.8l-4.4,1.4L8.8,7.3H0l2.1,13.9H0v0.7h21.5v-0.7h-1.1
				C21.1,20.7,21.5,19.8,21.5,19z M18.2,7.7c0-1.1,0.9-1.9,1.9-1.9c1.1,0,1.9,0.9,1.9,1.9c0,0.5-0.2,1-0.6,1.4V7.7L18.2,7.7
				C18.2,7.7,18.2,7.7,18.2,7.7z M10.3,18.4H2.4l-0.1-0.7h8.1L10.3,18.4z M10.5,17.1H2.2l-0.3-2h8.9L10.5,17.1z M11,14.5H1.8
				l-0.1-0.6h9.4L11,14.5z M11.2,13.2H1.6l-0.3-1.9h10.2L11.2,13.2z M1.1,9.8h10.7l-0.1,0.8H1.2L1.1,9.8z M11.4,2.8l3.2-1.1v0.4
				L11.7,3L9.8,7.3H9.5L11.4,2.8z M12,8l-0.2,1.2H1L0.8,8H12z M2.8,21.2L2.5,19h7.7l-0.4,2.2H2.8z M11.6,14.4V19
				c0,0.9,0.4,1.7,1,2.2h-2.2L11.6,14.4z M14.1,21.2c-1.1-0.2-1.9-1.1-1.9-2.2v-8.4l0,0l0.4-2.2h8.2V19c0,1.1-0.7,2-1.8,2.2l0,0
				L14.1,21.2z"/>
			<path id="Path_67" class="st0" d="M20.4,19v-4.5h-7.8V19c0,1,0.8,1.9,1.9,1.9h4C19.6,20.9,20.4,20,20.4,19z M19.8,19
				c0,0.7-0.6,1.2-1.2,1.2h-4c-0.7,0-1.2-0.6-1.2-1.2v-3.8h6.5V19z"/>
			<rect id="Rectangle_36" x="19.8" y="12.5" class="st0" width="0.7" height="1.1"/>
			<rect id="Rectangle_37" x="19.8" y="9.2" class="st0" width="0.7" height="2.7"/>
			<path id="Path_68" class="st0" d="M15.5,19.6c0.5,0,1-0.4,1-1s-0.4-1-1-1s-1,0.4-1,1l0,0C14.5,19.1,14.9,19.6,15.5,19.6
				L15.5,19.6z M15.5,18.3c0.2,0,0.3,0.1,0.3,0.3c0,0.2-0.1,0.3-0.3,0.3c-0.2,0-0.3-0.1-0.3-0.3c0,0,0,0,0,0l0,0
				C15.1,18.4,15.3,18.3,15.5,18.3z"/>
			<path id="Path_69" class="st0" d="M17.2,17.7c0.5,0,1-0.4,1-1s-0.4-1-1-1s-1,0.4-1,1l0,0C16.2,17.3,16.6,17.7,17.2,17.7
				L17.2,17.7z M17.2,16.4c0.2,0,0.3,0.1,0.3,0.3c0,0.2-0.1,0.3-0.3,0.3c-0.2,0-0.3-0.1-0.3-0.3l0,0C16.9,16.6,17,16.4,17.2,16.4
				L17.2,16.4z"/>
		</g>
	</g>
</g>
</svg>
