<?xml version="1.0" encoding="utf-8"?>
<!-- Generator: Adobe Illustrator 22.0.0, SVG Export Plug-In . SVG Version: 6.00 Build 0)  -->
<svg version="1.1" id="Livello_1" xmlns="http://www.w3.org/2000/svg" xmlns:xlink="http://www.w3.org/1999/xlink" x="0px" y="0px"
	 viewBox="0 0 54 54" style="enable-background:new 0 0 54 54;" xml:space="preserve">
<style type="text/css">
	.st0{fill:#B5182D;}
</style>
<path id="Path_197" class="st0" d="M2.5,11c-0.2,0-0.3,0-0.5,0.1l23.8,19.8c0.8,0.5,1.7,0.5,2.5,0l23.8-19.8c-0.2,0-0.3-0.1-0.5-0.1
	L2.5,11z M0.1,12.8C0.1,13,0,13.3,0,13.5v27c0,0.2,0,0.5,0.1,0.7l17.7-13.7L0.1,12.8z M53.9,12.8L36.2,27.4l17.7,13.7
	c0.1-0.2,0.1-0.4,0.1-0.7v-27C54,13.2,53.9,13,53.9,12.8z M19.7,29.1L2,42.9c0.2,0.1,0.3,0.1,0.5,0.1h49.1c0.2,0,0.3,0,0.5-0.1
	L34.3,29.1l-4.5,3.7c-1.6,1.4-4,1.4-5.6,0L19.7,29.1z"/>
</svg>
