<svg xmlns="http://www.w3.org/2000/svg" viewBox="9470.378 549.439 53.993 31.905">
  <defs>
    <style>
      .cls-1 {
        fill: #b5182d;
      }
    </style>
  </defs>
  <path id="Path_197" data-name="Path 197" class="cls-1" d="M2.454,952.4a1.19,1.19,0,0,0-.491.062L25.77,972.279a2.333,2.333,0,0,0,2.516,0l23.806-19.818a1.517,1.517,0,0,0-.491-.062ZM.123,954.118a3.071,3.071,0,0,0-.123.736v27a2.208,2.208,0,0,0,.123.675l17.671-13.682Zm53.748,0L36.2,968.782l17.671,13.682a2.61,2.61,0,0,0,.123-.675v-27A3.154,3.154,0,0,0,53.871,954.118ZM19.7,970.439l-17.732,13.8a1.351,1.351,0,0,0,.491.061H51.539a1.2,1.2,0,0,0,.491-.061L34.3,970.439l-4.479,3.742a4.44,4.44,0,0,1-5.645,0L19.7,970.439Z" transform="translate(9470.378 -402.961)"/>
</svg>
