<svg xmlns="http://www.w3.org/2000/svg" viewBox="7552 2450 64 64">
  <defs>
    <style>
      .cls-1 {
        fill: #b5182d;
      }
    </style>
  </defs>
  <g id="Group_78" data-name="Group 78" transform="translate(7183 201)">
    <path id="Path_153" data-name="Path 153" class="cls-1" d="M57.959,38.66H18.09V28.527H57.959Zm-37.869-2H55.959V30.527H20.09Z" transform="translate(369 2249)"/>
    <path id="Path_154" data-name="Path 154" class="cls-1" d="M20.09,38.66H4.365V28.527H20.09Zm-13.725-2H18.09V30.527H6.365Z" transform="translate(369 2249)"/>
    <path id="Path_155" data-name="Path 155" class="cls-1" d="M54.18,27.827,52.465,26.8c.8-1.34-.04-2.342-2.233-4.083-.271-.215-.528-.419-.759-.615-3.228-2.747-1.8-5.9-.763-8.2l1.822.823c-1.3,2.881-1.556,4.331.237,5.856.214.182.454.373.705.572C53.175,22.5,56.021,24.756,54.18,27.827Z" transform="translate(369 2249)"/>
    <path id="Path_156" data-name="Path 156" class="cls-1" d="M56.723,26.617c-.006-1.364-.014-3.058-.823-3.925a5.723,5.723,0,0,0-1.059-.792,7.667,7.667,0,0,1-1.466-1.125c-1.217-1.268-2.294-2.6-2.032-3.871l1.959.405,0-.015c-.006.15.13.653,1.5,2.082a6.009,6.009,0,0,0,1.116.84,7.272,7.272,0,0,1,1.438,1.108c1.346,1.441,1.356,3.659,1.363,5.279Z" transform="translate(369 2249)"/>
    <path id="Path_157" data-name="Path 157" class="cls-1" d="M32,2A30,30,0,1,1,2,32,30.034,30.034,0,0,1,32,2m0-2A32,32,0,1,0,64,32,32,32,0,0,0,32,0Z" transform="translate(369 2249)"/>
    <rect id="Rectangle_86" data-name="Rectangle 86" class="cls-1" width="62.98" height="2" transform="matrix(0.74, 0.673, -0.673, 0.74, 378.382, 2259.066)"/>
  </g>
</svg>
