<?xml version="1.0" encoding="utf-8"?>
<!-- Generator: Adobe Illustrator 22.0.0, SVG Export Plug-In . SVG Version: 6.00 Build 0)  -->
<svg version="1.1" id="Livello_1" xmlns="http://www.w3.org/2000/svg" xmlns:xlink="http://www.w3.org/1999/xlink" x="0px" y="0px"
	 viewBox="0 0 22.7 22.7" style="enable-background:new 0 0 22.7 22.7;" xml:space="preserve">
<style type="text/css">
	.st0{fill:#888989;}
</style>
<title>phon</title>
<g id="Livello_2_1_">
	<g id="Livello_1-2">
		<g id="Group_43">
			<path id="Path_76" class="st0" d="M13.9,18.2c0-0.2-0.1-0.4-0.3-0.4c-0.2,0-0.4,0.1-0.4,0.3c0,0,0,0.1,0,0.1
				c0,0.6,0.6,1.3,1.5,1.6c0.5,0.2,1.1,0.3,1.7,0.2c0.7-0.1,1.3-0.4,1.7-0.9c1.1-1.1,1.8-3.5,1-8c-0.2-1.2-0.5-3.6,0.5-4.4
				c0.1-0.1,0.1-0.4,0-0.5c-0.1-0.1-0.3-0.2-0.5,0c-1.3,1.1-1.1,3.6-0.8,5.2c0.8,4.1,0.2,6.3-0.8,7.3c-0.4,0.4-0.8,0.6-1.3,0.7
				c-0.5,0.1-0.9,0-1.3-0.2C14.3,18.9,13.9,18.5,13.9,18.2L13.9,18.2z"/>
			<path id="Path_77" class="st0" d="M21.2,5.8l-1.2-1.2l-0.2,0.2c-0.3,0.3-0.3,0.8,0,1.2l0,0c0.3,0.3,0.8,0.3,1.2,0
				C21.1,5.9,21.2,5.8,21.2,5.8z M20.3,3.9l1.6,1.6l0,0c0.1,0.1,0.1,0.4,0,0.5l0,0l-0.4,0.4C20.9,7,20,7,19.4,6.4c0,0,0,0,0,0l0,0
				c-0.6-0.6-0.6-1.6,0-2.2l0.4-0.4l0,0C19.9,3.7,20.1,3.7,20.3,3.9L20.3,3.9L20.3,3.9z"/>
			<path id="Path_78" class="st0" d="M21.7,6.3c0.1,0.1,0.4,0.1,0.5,0c0.1-0.1,0.1-0.4,0-0.5l0,0l-2.2-2.2c-0.1-0.1-0.4-0.1-0.5,0
				c0,0,0,0,0,0c-0.1,0.1-0.1,0.4,0,0.5l0,0L21.7,6.3z"/>
			<path id="Path_79" class="st0" d="M22.6,4.9c0.1-0.1,0.1-0.4,0-0.5c0,0,0,0,0,0c-0.1-0.1-0.3-0.1-0.5,0l-0.9,0.8
				c-0.1,0.1-0.1,0.4,0,0.5c0.1,0.1,0.4,0.1,0.5,0l0,0L22.6,4.9z"/>
			<path id="Path_80" class="st0" d="M21.4,3.8c0.1-0.1,0.1-0.4,0-0.5c-0.1-0.1-0.3-0.1-0.5,0l0,0l-0.9,0.9c-0.1,0.1-0.1,0.4,0,0.5
				c0.1,0.1,0.4,0.1,0.5,0L21.4,3.8z"/>
			<path id="Path_81" class="st0" d="M0.4,3.1h2c0.1,0,0.2,0,0.3,0.1l1.1,1L3.4,4.4l0.2-0.3c0.1,0.1,0.1,0.2,0.1,0.3l0,0v4.8
				c0,0.1,0,0.2-0.1,0.3l-1.1,1l-0.2-0.3l0.2,0.3c-0.1,0.1-0.2,0.1-0.2,0.1h-2c-0.2,0-0.4-0.2-0.4-0.4c0,0,0,0,0,0V3.4
				C0,3.2,0.2,3.1,0.4,3.1z M2.2,3.8H0.7V10h1.5l0.9-0.8V4.6L2.2,3.8z"/>
			<path id="Path_82" class="st0" d="M3.4,4.1l9.9-1.4c0.1,0,0.3,0,0.4,0c0.9,0,1.8,0.4,2.5,1.1c0.7,0.7,1.1,1.5,1.2,2.5
				c0.1,0.4,0.1,0.7,0,1.1c-0.1,0.9-0.6,1.8-1.2,2.5c-0.6,0.7-1.5,1.1-2.5,1.1l0,0c-0.1,0-0.3,0-0.4,0L3.4,9.6l0-0.4l0,0.4
				c-0.2,0-0.3-0.2-0.3-0.4V4.4C3.1,4.3,3.2,4.1,3.4,4.1L3.4,4.1z M13.4,3.4L3.8,4.7V9l9.6,1.2c0.1,0,0.2,0,0.3,0l0,0
				c0.7,0,1.5-0.3,2-0.9c0.5-0.6,0.9-1.3,1-2.1c0-0.3,0-0.6,0-0.9c-0.1-0.8-0.5-1.5-1-2.1c-0.5-0.5-1.2-0.8-1.9-0.8
				C13.6,3.4,13.5,3.4,13.4,3.4L13.4,3.4z"/>
			<path id="Path_83" class="st0" d="M13.4,4.5c1.3,0,2.3,1,2.3,2.3s-1,2.3-2.3,2.3c-1.3,0-2.3-1-2.3-2.3l0,0c0-0.6,0.2-1.2,0.7-1.6
				C12.2,4.7,12.8,4.5,13.4,4.5L13.4,4.5z M14.5,5.7c-0.6-0.6-1.6-0.6-2.3,0c-0.6,0.6-0.6,1.6,0,2.3c0.6,0.6,1.6,0.6,2.3,0
				C14.8,7.6,15,7.2,15,6.8C15,6.4,14.8,6,14.5,5.7z"/>
			<path id="Path_84" class="st0" d="M15.2,10.2c0,0.1,0.1,0.2,0.1,0.3c0,0.1,0,0.2,0,0.4v4.8c0,0.5-0.2,1.1-0.5,1.5
				c-0.3,0.4-0.8,0.6-1.3,0.6l0,0c-0.5,0-1-0.2-1.3-0.6c-0.4-0.4-0.5-0.9-0.5-1.5v-4.8c0-0.1,0-0.2,0-0.3c0-0.1,0-0.2,0.1-0.3
				l0.3,0.1l-0.3-0.1c0-0.2,0.2-0.3,0.4-0.3l1.2,0.2c0.2,0,0.5,0,0.7,0c0.2,0,0.5-0.1,0.7-0.2l0,0C14.8,9.9,15.1,10,15.2,10.2
				C15.2,10.2,15.2,10.2,15.2,10.2L15.2,10.2z M14.6,10.9c0,0,0-0.1,0-0.1c-0.1,0.1-0.3,0.1-0.5,0.1c-0.3,0.1-0.6,0.1-0.9,0
				l-0.9-0.1c0,0,0,0.1,0,0.1v4.8c0,0.4,0.1,0.7,0.4,1c0.2,0.2,0.5,0.4,0.8,0.4l0,0c0.3,0,0.6-0.2,0.8-0.4c0.2-0.3,0.4-0.7,0.4-1
				L14.6,10.9L14.6,10.9z"/>
			<path id="Path_85" class="st0" d="M12,12.2h-0.3c-0.3,0-0.6,0.3-0.6,0.6v1.4c0,0.3,0.3,0.6,0.6,0.6H12V12.2z"/>
			<path id="Path_86" class="st0" d="M12.9,17.1v0.6c0,0.3,0.3,0.6,0.6,0.6l0,0c0.3,0,0.6-0.3,0.6-0.6v-0.6H12.9z"/>
		</g>
	</g>
</g>
</svg>
