<svg xmlns="http://www.w3.org/2000/svg" viewBox="0 0 41.31 31.54"><defs><style>.cls-1{fill:#888989;}</style></defs><title>phon</title><g id="Livello_2" data-name="Livello 2"><g id="Livello_1-2" data-name="Livello 1"><g id="Group_43" data-name="Group 43"><path id="Path_76" data-name="Path 76" class="cls-1" d="M25.29,28.27A.65.65,0,1,0,24,28.2c-.06,1.14,1.06,2.33,2.65,2.93a6.1,6.1,0,0,0,3.08.35,5.48,5.48,0,0,0,3.15-1.57c2.08-2.08,3.34-6.45,1.79-14.65-.43-2.24-1-6.49,1-8a.65.65,0,0,0,0-.91.63.63,0,0,0-.84-.09c-2.42,2-2,6.6-1.42,9.45C34.84,23.25,33.78,27.19,32,29a4.21,4.21,0,0,1-2.42,1.21,5.1,5.1,0,0,1-2.45-.28c-1.08-.41-1.84-1.08-1.81-1.66Z"/><path id="Path_77" data-name="Path 77" class="cls-1" d="M38.69,5.64,36.57,3.53l-.29.29a1.51,1.51,0,0,0,0,2.12h0a1.51,1.51,0,0,0,2.12,0l.29-.3ZM37,2.15l3,3h0a.66.66,0,0,1,0,.92h0l-.75.75a2.81,2.81,0,0,1-4,0h0a2.81,2.81,0,0,1,0-3.95l.76-.74h0a.65.65,0,0,1,.91,0h0Z"/><path id="Path_78" data-name="Path 78" class="cls-1" d="M39.59,6.55a.66.66,0,0,0,.92,0,.65.65,0,0,0,0-.91l0,0L36.59,1.72a.64.64,0,0,0-.91,0,.66.66,0,0,0,0,.92l0,0Z"/><path id="Path_79" data-name="Path 79" class="cls-1" d="M41.14,4.12a.64.64,0,0,0,0-.91.65.65,0,0,0-.88,0L38.7,4.74a.65.65,0,0,0,0,.91.66.66,0,0,0,.92,0l0,0Z"/><path id="Path_80" data-name="Path 80" class="cls-1" d="M39,2a.65.65,0,0,0-.88-.95l0,0L36.57,2.61a.65.65,0,0,0,0,.91.66.66,0,0,0,.89,0Z"/><path id="Path_81" data-name="Path 81" class="cls-1" d="M.65.67H4.22a.64.64,0,0,1,.49.22l2,1.84-.44.47.44-.47a.63.63,0,0,1,.2.47h0V12a.63.63,0,0,1-.23.5l-2,1.88-.44-.47.44.47a.67.67,0,0,1-.44.18H.65A.65.65,0,0,1,0,13.91V1.31A.65.65,0,0,1,.65.67ZM4,2H1.29V13.27H4l1.62-1.54V3.48Z"/><path id="Path_82" data-name="Path 82" class="cls-1" d="M6.19,2.56l18-2.5A5.49,5.49,0,0,1,25,0a6.29,6.29,0,0,1,4.47,2,8.06,8.06,0,0,1,2.2,4.49,7.12,7.12,0,0,1,0,2A8,8,0,0,1,29.44,13a6.29,6.29,0,0,1-4.52,2h0a6.3,6.3,0,0,1-.75-.05l-18-2.31L6.24,12l-.08.64A.64.64,0,0,1,5.6,12V3.2a.64.64,0,0,1,.6-.64ZM24.34,1.33,6.89,3.76v7.68l17.44,2.24c.2,0,.4,0,.6,0h0a5.13,5.13,0,0,0,3.6-1.6,6.78,6.78,0,0,0,1.84-3.8,6.3,6.3,0,0,0,0-1.68,6.78,6.78,0,0,0-1.85-3.76A5,5,0,0,0,25,1.3a4.44,4.44,0,0,0-.63,0Z"/><path id="Path_83" data-name="Path 83" class="cls-1" d="M24.38,3.3a4.2,4.2,0,1,1-4.2,4.2,4.24,4.24,0,0,1,1.23-3,4.2,4.2,0,0,1,3-1.23Zm2.06,2.14a2.91,2.91,0,1,0,0,4.12,3,3,0,0,0,.85-2.06A2.91,2.91,0,0,0,26.44,5.44Z"/><path id="Path_84" data-name="Path 84" class="cls-1" d="M27.79,13.73a5.27,5.27,0,0,1,.14.6A5,5,0,0,1,28,15v8.75a4.17,4.17,0,0,1-1,2.7,3.2,3.2,0,0,1-2.42,1.18h0a3.24,3.24,0,0,1-2.43-1.18,4.22,4.22,0,0,1-1-2.7V15a3.43,3.43,0,0,1,0-.56,3.33,3.33,0,0,1,.1-.55l.62.16-.63-.16a.65.65,0,0,1,.75-.47l2.25.34a3.55,3.55,0,0,0,1.26,0,4.17,4.17,0,0,0,1.24-.44h0a.65.65,0,0,1,.88.26.49.49,0,0,1,.06.17ZM26.69,15a1.55,1.55,0,0,0,0-.22,4.87,4.87,0,0,1-.83.23,5,5,0,0,1-1.69,0l-1.64-.25a1.55,1.55,0,0,0,0,.22v8.74a2.88,2.88,0,0,0,.65,1.87,1.9,1.9,0,0,0,1.44.72h0A1.89,1.89,0,0,0,26,25.62a2.94,2.94,0,0,0,.64-1.87V15Z"/><path id="Path_85" data-name="Path 85" class="cls-1" d="M21.86,17.27h-.48a1.06,1.06,0,0,0-1.05,1.05v2.51a1.06,1.06,0,0,0,1.05,1.05h.48Z"/><path id="Path_86" data-name="Path 86" class="cls-1" d="M23.56,26.28v1.15a1.09,1.09,0,0,0,1.08,1.09h0a1.1,1.1,0,0,0,1.09-1.09V26.28Z"/></g></g></g></svg>