<?xml version="1.0" encoding="utf-8"?>
<!-- Generator: Adobe Illustrator 22.0.0, SVG Export Plug-In . SVG Version: 6.00 Build 0)  -->
<svg version="1.1" id="Livello_1" xmlns="http://www.w3.org/2000/svg" xmlns:xlink="http://www.w3.org/1999/xlink" x="0px" y="0px"
	 viewBox="0 0 34 34" style="enable-background:new 0 0 34 34;" xml:space="preserve">
<style type="text/css">
	.st0{fill:#888989;}
</style>
<title>scopa</title>
<g id="Livello_2_1_">
	<g id="Livello_1-2">
		<g id="noun_1091447_cc">
			<g id="Group_45">
				<path id="Path_142" class="st0" d="M15.1,0.3c-0.5,0.4-0.7,0.9-0.7,1.5l0,0L15.3,13c-2.9,0.8-5,3-5.1,5.4l0,0
					c0.1,5.3-0.4,7.8-4.3,14.9c-0.1,0.2,0,0.4,0.2,0.6c0.1,0,0.1,0.1,0.2,0.1h4.8c0.1,0,0.2,0,0.3-0.1c0.7-0.6,1.3-1.4,1.7-2.3
					c0.1,0.7,0.2,1.3,0.2,2c0,0.2,0.2,0.4,0.4,0.4c0,0,0,0,0,0l0,0h3.4c0.2,0,0.3-0.1,0.4-0.3c0.4-1.3,0.5-2.6,0.4-4
					c0.1,0.2,0.3,0.4,0.7,1.1l0,0c0.5,0.9,0.7,1.8,0.8,2.8c0,0.2,0.1,0.4,0.3,0.4h2.8c0.2,0,0.4-0.1,0.4-0.3
					c0.1-0.6,0.1-1.2,0.1-1.8c0.4,0.2,0.7,0.5,0.9,0.8c0.3,0.3,0.5,0.7,0.6,1.1c0.1,0.2,0.2,0.3,0.4,0.3h2.9c0.2,0,0.4-0.2,0.4-0.4
					c0-0.1,0-0.2-0.1-0.2c-1.3-1.8-2.4-5.2-2.9-9.8l0,0c-0.1-0.9-0.2-2.1-0.3-3.2l0,0l-0.2-2.9l0,0c0-0.1,0-0.1,0-0.2
					c0-0.1,0-0.2,0-0.3c-0.5-2.4-2.9-4.1-5.9-4.4L17.8,1.5l0,0C17.8,0.6,16.9-0.1,16,0l0,0C15.7,0,15.4,0.1,15.1,0.3z M15.6,1
					c0.4-0.3,1-0.1,1.3,0.3c0.1,0.1,0.1,0.2,0.1,0.3l0,0l0,0L17.9,13c0,0.2,0.2,0.4,0.4,0.4c2.7,0.1,4.9,1.6,5.4,3.5l-12.6,1.2
					c0.2-2,2.1-3.8,4.8-4.4c0.2,0,0.3-0.2,0.3-0.4L15.2,1.8l0,0C15.2,1.5,15.4,1.2,15.6,1L15.6,1z M11.1,18.9l12.8-1.2l0.2,2.8l0,0
					c0.1,1,0.2,2.3,0.3,3.2l0,0c0.2,3.3,1.1,6.6,2.7,9.6h-1.9c-0.2-0.4-0.4-0.7-0.6-1l0,0c-0.5-0.6-1.1-1.1-1.8-1.4
					c-0.2-0.1-0.4,0-0.5,0.2c0,0.1,0,0.1,0,0.2c0.1,0.7,0.1,1.3,0,2h-2c-0.1-1-0.4-2-0.9-2.9l0,0c-0.5-0.8-1-1.5-1.6-2.2
					c-0.1-0.2-0.4-0.2-0.6-0.1c0,0,0,0,0,0c-0.1,0.1-0.2,0.2-0.1,0.4c0.3,2.9,0.2,3.8-0.1,4.7h-2.7c0-1.2-0.3-2.4-0.7-3.5
					c-0.1-0.2-0.3-0.3-0.5-0.3c0,0,0,0,0,0c-0.2,0.1-0.3,0.2-0.3,0.4c0,1.3-0.6,2.5-1.6,3.3H7C10.5,26.7,11.1,23.8,11.1,18.9z"/>
			</g>
		</g>
	</g>
</g>
</svg>
