<svg xmlns="http://www.w3.org/2000/svg" viewBox="0 0 24.19 36.99"><defs><style>.cls-1{fill:#888989;}</style></defs><title>scopa</title><g id="Livello_2" data-name="Livello 2"><g id="Livello_1-2" data-name="Livello 1"><g id="noun_1091447_cc" data-name="noun 1091447 cc"><g id="Group_45" data-name="Group 45"><path id="Path_142" data-name="Path 142" class="cls-1" d="M10,.36A1.91,1.91,0,0,0,9.25,2h0l1,12.09C7.1,15,4.78,17.33,4.73,20h0c.09,5.71-.48,8.52-4.68,16.19a.45.45,0,0,0,.18.6.39.39,0,0,0,.21.06l5.25,0A.44.44,0,0,0,6,36.79,7.8,7.8,0,0,0,7.84,34.3a9.86,9.86,0,0,1,.21,2.17.44.44,0,0,0,.43.45h0l3.71,0a.44.44,0,0,0,.42-.3A10,10,0,0,0,13,32.3c.15.22.31.45.78,1.16h0a7.1,7.1,0,0,1,.84,3.09A.45.45,0,0,0,15,37H18a.44.44,0,0,0,.43-.35,7.82,7.82,0,0,0,.09-2,3,3,0,0,1,1,.87,4.1,4.1,0,0,1,.67,1.19.43.43,0,0,0,.41.29h3.13a.45.45,0,0,0,.45-.43.5.5,0,0,0-.08-.26c-1.36-2-2.66-5.64-3.12-10.65h0c-.09-1-.23-2.32-.31-3.43h0l-.26-3.15h0c0-.06,0-.14,0-.24a.92.92,0,0,0,0-.28c-.51-2.63-3.17-4.49-6.41-4.79L13,1.68h0A1.85,1.85,0,0,0,11,0h0A1.83,1.83,0,0,0,10,.36Zm.52.71a1,1,0,0,1,1.52.66v0h0l1,12.46a.44.44,0,0,0,.42.4c2.94.16,5.29,1.71,5.89,3.78L5.64,19.68c.25-2.15,2.31-4.12,5.18-4.82a.43.43,0,0,0,.34-.46l-1-12.46h0a1,1,0,0,1,.4-.86ZM5.62,20.57l13.93-1.31.25,3h0c.08,1.13.22,2.47.31,3.44h0A25.9,25.9,0,0,0,23,36.1H20.9A5.07,5.07,0,0,0,20.24,35h0a4.93,4.93,0,0,0-2-1.5.44.44,0,0,0-.63.44,10.48,10.48,0,0,1,0,2.17H15.44A7.1,7.1,0,0,0,14.49,33h0a17.34,17.34,0,0,0-1.73-2.35.44.44,0,0,0-.62-.07.47.47,0,0,0-.16.39c.3,3.14.19,4.18-.1,5.13l-2.94,0a11.71,11.71,0,0,0-.79-3.79A.44.44,0,0,0,7.58,32a.46.46,0,0,0-.28.42A4.86,4.86,0,0,1,5.52,36H1.18C5,29,5.66,25.85,5.62,20.57Z"/></g></g></g></g></svg>