<?xml version="1.0" encoding="utf-8"?>
<!-- Generator: Adobe Illustrator 22.0.0, SVG Export Plug-In . SVG Version: 6.00 Build 0)  -->
<svg version="1.1" id="Livello_1" xmlns="http://www.w3.org/2000/svg" xmlns:xlink="http://www.w3.org/1999/xlink" x="0px" y="0px"
	 viewBox="0 0 43 43" style="enable-background:new 0 0 43 43;" xml:space="preserve">
<style type="text/css">
	.st0{fill:#B5182D;}
</style>
<path id="Path_196" class="st0" d="M42.7,36.9c-0.3,0.5-0.6,1-0.9,1.4l-2.7,3.2c-3.5,3.5-11.7,1.1-18-5.3l-5.8-6l-2.6-2.6L7,21.6
	C1,15.4-1.4,7.5,1.8,3.8l1.9-2.1l1.4-1.5C5.3,0,5.4,0,5.5,0.1c0,0,7,6.4,7,6.5l-1.3,1.5l-2,3v0.2c-0.5,3.2,0.5,6.4,2.7,8.7l3.9,4.2
	l2.6,2.6l4,4.1c2.3,2.3,5.5,3.4,8.7,2.9l2.6-2.3c0,0,1.2-1.3,1.3-1.1L42.7,36.9z"/>
</svg>
