<svg xmlns="http://www.w3.org/2000/svg" viewBox="8747.087 550.956 42.296 43.044">
  <defs>
    <style>
      .cls-1 {
        fill: #b5182d;
      }
    </style>
  </defs>
  <path id="Path_196" data-name="Path 196" class="cls-1" d="M42.248,36.905a16.117,16.117,0,0,1-.871,1.415l-2.722,3.157c-3.484,3.484-11.65,1.089-17.965-5.335l-5.77-5.988-2.613-2.613-5.77-5.879C.549,15.457-1.847,7.509,1.42,3.808L3.271,1.739,4.686.215C4.9,0,5.013,0,5.121.106c0,0,6.968,6.424,6.968,6.532L10.783,8.163l-1.96,3.048v.218a10.46,10.46,0,0,0,2.722,8.71l3.92,4.246L18.078,27l4.028,4.137a10.174,10.174,0,0,0,8.71,2.94l2.613-2.286s1.2-1.306,1.307-1.089Z" transform="translate(8747.135 550.922)"/>
</svg>
