<svg xmlns="http://www.w3.org/2000/svg" viewBox="0 0 35.75 30.06"><defs><style>.cls-1{fill:#888989;}</style></defs><title>wi_fi</title><g id="Livello_2" data-name="Livello 2"><g id="Livello_1-2" data-name="Livello 1"><path id="Path_141" data-name="Path 141" class="cls-1" d="M17.88,0A29.1,29.1,0,0,0,.32,5.85.81.81,0,0,0,.17,7a.81.81,0,0,0,1.14.16h0a27.59,27.59,0,0,1,33.13,0A.81.81,0,0,0,35.58,7a.81.81,0,0,0-.15-1.14h0A29.09,29.09,0,0,0,17.88,0Zm0,7.72A20,20,0,0,0,5.18,12a.81.81,0,0,0,.89,1.36l.13-.1A18.33,18.33,0,0,1,17.88,9.34a18.37,18.37,0,0,1,11.67,3.87.82.82,0,0,0,1.15,0,.81.81,0,0,0,0-1.14L30.57,12A20.09,20.09,0,0,0,17.88,7.71Zm0,7.31a12.54,12.54,0,0,0-7.82,2.6.82.82,0,1,0,1,1.31l0,0a11,11,0,0,1,6.8-2.26,11,11,0,0,1,6.8,2.26.82.82,0,0,0,1.06-1.25l0,0A12.56,12.56,0,0,0,17.87,15Zm0,6.9A4.07,4.07,0,1,0,21.94,26a4.07,4.07,0,0,0-4.06-4.07Zm0,1.63A2.44,2.44,0,1,1,15.44,26a2.43,2.43,0,0,1,2.44-2.44Z"/></g></g></svg>