<?xml version="1.0" encoding="utf-8"?>
<!-- Generator: Adobe Illustrator 22.0.0, SVG Export Plug-In . SVG Version: 6.00 Build 0)  -->
<svg version="1.1" id="Livello_1" xmlns="http://www.w3.org/2000/svg" xmlns:xlink="http://www.w3.org/1999/xlink" x="0px" y="0px"
	 viewBox="0 0 22.7 22.7" style="enable-background:new 0 0 22.7 22.7;" xml:space="preserve">
<style type="text/css">
	.st0{fill:#888989;}
</style>
<title>wi_fi</title>
<g id="Livello_2_1_">
	<g id="Livello_1-2">
		<path id="Path_141" class="st0" d="M11.3,1.8c-4,0-7.9,1.3-11.1,3.7C0,5.7-0.1,6,0.1,6.2c0,0,0,0,0,0c0.2,0.2,0.5,0.3,0.7,0.1
			c0,0,0,0,0,0l0,0c6.2-4.7,14.8-4.7,21,0c0.2,0.2,0.5,0.1,0.7-0.1c0,0,0,0,0,0c0.2-0.2,0.1-0.5-0.1-0.7c0,0,0,0,0,0l0,0
			C19.3,3.1,15.4,1.8,11.3,1.8z M11.3,6.7c-2.9,0-5.8,0.9-8.1,2.7C3,9.6,3,9.9,3.1,10.1c0.2,0.2,0.5,0.3,0.7,0.1l0.1-0.1
			C6,8.6,8.7,7.7,11.3,7.7c2.7-0.1,5.3,0.8,7.4,2.5c0.2,0.2,0.5,0.2,0.7,0c0.2-0.2,0.2-0.5,0-0.7l-0.1,0C17.1,7.6,14.3,6.7,11.3,6.7
			L11.3,6.7z M11.3,11.3c-1.8,0-3.5,0.6-5,1.6c-0.2,0.2-0.3,0.5-0.1,0.7S6.8,14,7,13.8l0,0c1.2-0.9,2.8-1.5,4.3-1.4
			c1.6,0,3.1,0.5,4.3,1.4c0.2,0.2,0.6,0.1,0.7-0.1c0.2-0.2,0.1-0.5-0.1-0.7l0,0C14.9,11.9,13.1,11.3,11.3,11.3L11.3,11.3z
			 M11.3,15.7c-1.4,0-2.6,1.1-2.6,2.6c0,1.4,1.1,2.6,2.6,2.6c1.4,0,2.6-1.1,2.6-2.6c0,0,0,0,0,0C13.9,16.9,12.8,15.7,11.3,15.7z
			 M11.3,16.7c0.9,0,1.5,0.7,1.5,1.5s-0.7,1.5-1.5,1.5c-0.9,0-1.5-0.7-1.5-1.5l0,0C9.8,17.4,10.5,16.7,11.3,16.7
			C11.3,16.7,11.3,16.7,11.3,16.7z"/>
	</g>
</g>
</svg>
